<?xml version="1.0" encoding="UTF-8"?>
<svg id="Layer_1" xmlns="http://www.w3.org/2000/svg" version="1.1" viewBox="0 0 2779.1 3234.9">
  <!-- Generator: Adobe Illustrator 30.1.0, SVG Export Plug-In . SVG Version: 2.1.1 Build 136)  -->
  <defs>
    <style>
      .st0 {
        fill: #f8f8ee;
      }

      .st1 {
        fill: #dab357;
      }

      .st2 {
        fill: #0e1836;
      }
    </style>
  </defs>
  <path d="M3095.8,2417.2c0,0,0,0,0,0h0Z"/>
  <path d="M1590.8,162c.2,0,1.9-.8,2.1-.9-.2,0-1.9.8-2.1.9h0Z"/>
  <path d="M1369.3,138h0c-.2,0-.2,0,0,0Z"/>
  <path class="st1" d="M1407.2,63.9c-669,0-1211.4,714.4-1211.4,1595.6s76.7,639.2,208,894.2h49.1c-132.5-253.2-210.2-561.6-210.2-894.2,0-861.6,521.4-1560,1164.5-1560s1164.5,698.4,1164.5,1560-77.7,641-210.2,894.2h49.1c131.3-255.1,208-562.9,208-894.2,0-881.2-542.3-1595.6-1211.4-1595.6Z"/>
  <path class="st2" d="M321.7,1659.5c0-812.5,486-1471.1,1085.5-1471.1s1085.5,658.6,1085.5,1471.1-83.3,646.4-223.5,894.2h92.3c132.5-253.2,210.2-561.6,210.2-894.2,0-861.6-521.4-1560-1164.5-1560S242.7,797.9,242.7,1659.5s77.7,641,210.2,894.2h92.3c-140.2-247.8-223.5-557.8-223.5-894.2Z"/>
  <path class="st1" d="M1407.2,188.4c-599.5,0-1085.5,658.6-1085.5,1471.1s83.3,646.4,223.5,894.2h1724c140.2-247.8,223.5-557.8,223.5-894.2,0-812.5-486-1471.1-1085.5-1471.1Z"/>
  <g>
    <path class="st2" d="M1401.4,3167.4c-215.5,0-422-41.6-597-120.4-83.9-37.7-158.2-83-220.8-134.6-62.8-51.6-112.6-108.5-148.1-169.2-4.2-7.2-11.9-11.6-20.3-11.6H109.4v-660h2584v660h-305.7c-8.3,0-16.1,4.4-20.3,11.6-35.5,60.6-85.3,117.5-148.1,169.2-62.7,51.6-137,96.8-220.8,134.6-175.1,78.7-381.5,120.4-597,120.4Z"/>
    <path class="st1" d="M2669.9,2095.2v613h-282.2c-16.7,0-32.1,8.8-40.6,23.2-34.1,58.2-82.1,113-142.8,162.9-61.1,50.2-133.6,94.4-215.6,131.3-83.7,37.7-175.6,66.9-273.1,87-101.1,20.8-206.9,31.3-314.3,31.3s-213.2-10.5-314.3-31.3c-97.5-20-189.4-49.3-273.1-87-82-36.9-154.5-81-215.6-131.3-60.6-49.9-108.7-104.7-142.8-162.9-8.4-14.4-23.9-23.2-40.6-23.2H132.9v-613h2537M2716.9,2048.2H85.9v707h329.2c149.1,254.5,534.4,435.7,986.3,435.7s837.2-181.2,986.3-435.7h329.2v-707h0Z"/>
  </g>
  <g>
    <path class="st2" d="M1870.4,1964c-.5-.5-1-.8-1.6-.9,1.4.5,2.8,1.9,2.7,3,.1-.6-.2-1.4-1.2-2.1Z"/>
    <path class="st2" d="M1866.1,1964.2c-.1.7.2,1.6,1.3,2.5h.2c1,.9,2.2.9,3,.6-.2,0-.4.1-.7.2-1.6.2-4-1.6-3.8-3.3Z"/>
    <path class="st2" d="M875.3,1926.9c0-.4.3-.9.5-1.3-.3.4-.5.8-.5,1.3Z"/>
    <path class="st2" d="M877.1,2047.5c-.7-.1-1.1-.4-1.4-.8,0,0,0,.1.1.2,1.4,1.5,3.7.3,4.7-1.2v-.2c.5-.6.7-1.2.7-1.7-.2,1.8-2.3,4-4.1,3.8Z"/>
    <path class="st2" d="M877.6,2042.1c-1,.6-1.9,1.7-2.2,2.9.3-1.1,1.1-2.3,2.2-2.9Z"/>
    <path class="st2" d="M878.9,1924.1c2.3.4,2.5,2.1,1.6,3.5.8-1.1.8-2.6-.7-3.3h-.2c-.7-.4-1.5-.3-2.2,0,.5-.2,1-.2,1.5-.1Z"/>
    <path class="st2" d="M1873.3,1913c0,.2-.1.3-.1.4.1-.4.3-.7.6-.9-.2.1-.3.3-.5.5Z"/>
    <path class="st2" d="M1873.2,1913.7c0,.5.4.9,1,1.2-.5-.3-.8-.7-1-1.2Z"/>
    <path class="st2" d="M1875.6,1915.4c1,.1,2,0,2.6-.3h.2c.7-.5,1.1-.9,1.1-1.4,0,.1,0,.2-.1.3-.4.9-2.2,1.5-3.7,1.3Z"/>
    <path class="st2" d="M1221.6,2077.5c-1.4-1.4-3.1-1.6-4.1-1.1,1.1-.5,2.8-.3,4.1,1.1Z"/>
    <path class="st2" d="M1400.7,1966c-1-2.5-1.4-5.4-1.6-8.4.1,2.9.6,5.8,1.6,8.4Z"/>
    <path class="st2" d="M1487,1871.6c-.2-1.2-.3-2.3-.4-3.5.4,7.1.8,14.2.9,21.3,0-5.9-.1-11.8-.4-17.8Z"/>
    <path class="st2" d="M1454.5,1773.6c9.8.4,18.8,1.9,24.7,7.2-4.9-4.8-12.6-7.3-24.7-7.2Z"/>
    <path class="st2" d="M1439.8,1977.1c-9,0-18.1,0-26.5-2,8.4,1.9,17.5,2,26.5,2Z"/>
    <path class="st2" d="M1398.2,1813.3c0,2.4,0,4.9,0,7.5,0-2.5,0-4.9,0-7.3,0,0,0-.1,0-.2Z"/>
    <path class="st2" d="M1485.2,1849.6c-.2-5.4-.2-10.9,0-16.3-.3,3.5-.5,7-.6,10.6.2,1.9.3,3.8.5,5.7Z"/>
    <path class="st2" d="M1486.5,1817.1c0-.5,0-.9.1-1.4.2-5.6.2-10.6-.2-15.1,0,.9,0,1.8,0,2.7.4,4.7.3,9.2.1,13.8Z"/>
    <path class="st2" d="M1399.2,1786.2c-1.6,5.1-2.1,12.1-1.3,21.7-.3-9-.3-16.3,1.3-21.7Z"/>
    <path class="st2" d="M1434.5,1773.6c-2.2,0-4.4-.1-6.4-.2.8,0,1.6,0,2.5.1,1.3,0,2.6,0,3.9,0Z"/>
    <path class="st2" d="M1486.8,1913c0,2.4,0,4.9,0,7.4.1-4,.3-7.9.4-11.8,0,1.4-.2,2.8-.3,4.2v.2Z"/>
    <path class="st2" d="M1453.6,1977.3c-2.7-.1-5.5-.2-8.3-.2,2.7,0,5.4,0,8.1.2,12.9.8,20.8-.7,25.6-4.6-6.2,4.6-15.8,5.1-25.4,4.6Z"/>
    <path class="st2" d="M1485.8,1957.3c.6-4.8.6-10.4.6-16.8-.1,5.4-.3,10.8-.5,16,0,.3,0,.6,0,.9Z"/>
    <path class="st2" d="M1385.3,1829.8s0,0,0,0c0,.3,0,.6,0,.9,0-.3,0-.6,0-.8Z"/>
    <path class="st2" d="M1936.4,2063.2c-.7,0-1.4-.1-2-.3.6.1,1.3.2,2,.3Z"/>
    <path class="st2" d="M1956.3,2022c1.2-.8,2.5-.4,3.3.5-.8-.9-2.1-1.4-3.3-.6h-.1c-1.2,1-1,2.6-.2,3.8-.8-1.2-.9-2.8.4-3.7Z"/>
    <path class="st2" d="M1407.8,1776c1.5-.7,3.3-1.3,5.4-1.7-2,.4-3.7.9-5.4,1.7Z"/>
    <path class="st2" d="M1986.4,1887.7h-.1c-1.5-.9-2.5.2-2.9,1.7.4-1.6,1.6-2.7,3.3-1.5.9.7,1.1,2.1.9,3.4.3-1.4,0-3-1.1-3.6Z"/>
    <path class="st2" d="M1939.5,2061.3c-1.2-1.4-4.3-1.9-6.2-1.4,1.9-.5,5,0,6.2,1.4Z"/>
    <path class="st2" d="M2267.1,2049.3c-2.7-11.9-1.1-24-.8-36,.6-9.2.6-19.8,1.4-29.1,1.4-12.7,3.7-24,5.1-36.8.9-10.7,1.3-21.6,2.7-32.1,3.6-30.1,4.8-62-.7-91.9-1.8-9.7-6.2-18.6-9.9-27.7-2.8-7.2-5.6-15.6-8.2-22.5-3.3-8.3-5.1-16.7-8.1-25.1-6.7-18.1-13.8-35.8-20.4-54.1-11.2-31-19.1-63.5-30.1-94.6-5.5-17.7-14.7-35-18-53.5-2.6-11.7.3-24.9-.3-36.1-1.9-33.8-39.8-48.6-51.4-78.8-7.2-17.7-10-35.9-14.7-54.1-5.6-23.2-13.8-46.2-22-68.5-10.6-27.7-22.4-56.4-38.8-81.4-15.4-20.9-32.2-39.6-49.6-59.2-18.7-19.6-40.3-35.3-63.9-48-23.6-12.5-45.4-22.9-70.1-32.1-24.5-9.6-51.7-17.6-75-30.9-17.9-10-33.2-24.1-53.4-29-24-6.5-48.5-10.2-72.4-17.8-18.7-6.2-36.9-15.7-53.5-26.3-22.4-14.5-24.8-38.5-26.2-62.9-2.6-24.6.2-45.2,15.5-65.3,9.2-13.1,20.6-24.5,30.2-36.6,16.8-20.4,23.1-47.8,23.8-74.5.8-20,1.3-44.4-15.1-58-5.3-4.8-13.1-11-12.6-17.1,3.9-15.3,28-18.4,34.7-32,9.9-15.8,12.2-36.3,3.8-53.6-4.7-10.4-12.6-19.1-17-29.5-4.8-11.3-6.6-22.6-9.1-34.9-3.7-18.9-8-38.2-16.9-55.5-11.3-22.5-25.8-44.5-43.7-62.5-13.8-14.5-27.4-27.4-43.1-39.2-9.1-7-18.6-11.3-27.1-18.4-15.3-15-23-29.2-45.9-35.6-35-9.8-71.9-7.8-108-5.5-19.5,2-37.6,1.4-55.2,9.1-9.6,4.8-16.9,12.8-24.5,20.6-6.2,6.4-12.4,12.9-19.5,18.4-10.6,8.2-21,14.2-30.3,23-18.6,18.3-37.3,39.5-53,60.6-10.9,15.7-19.2,27.7-26.3,45.1-7.7,18.7-12.6,40.9-16.8,60.7-2,11.2-4.6,20-9.7,29.3-3.3,6.1-8.3,11.4-11.9,17.5-2.6,4.2-4.3,10.1-5.2,15.4-2,9.8-4.1,37.9,12.7,26,4.9-3.9,8.8-9.2,12.9-13.9,9.3-11,21.6-22.9,32.8-30.5.8-.5,1.8-1,2.6-1,.8,0,.3,1.2-1.4,3.4-2.9,3.8-7.2,8.4-10.9,12.3-9.7,9.8-20.1,20.7-27.8,31.4-2.5,3.1-5,6.4-5.9,10.3-1,3.8.3,8.4,2.4,11.8,3.7,8,12.9,13.9,20,18.7,7.2,5.3,3.3,8.9-2.8,14.9-5,4.9-10.3,9.9-14,16-8.1,14.8-4.6,32.6-3.2,48.7,2.5,17.9,5.2,36,13,52.5,8.5,19.2,26.4,31.1,37.7,47.8,7.5,11.9,11.9,26.6,14.7,40.8,2.2,11.3,2.7,26,4.1,36.2,1,8.1,4,16.1,2.9,24.3-1.4,8.9-7.6,16.7-13.8,23.8-11.8,13.4-28,21.4-44.2,27.8-18.6,6.9-36.9,13.9-56,20.4-24.2,8-49.2,11.7-72.1,23.1-15.2,8.4-27.7,18.6-44.1,26.3-15.1,7.4-31.6,11.2-46.6,18.3-15.9,6.9-32,14.2-48.4,20.8-43.2,20.6-84,51.8-110.8,91.6-29.4,39.2-50.8,84.7-66.3,131.1-7.3,24.6-12.9,49.3-20.4,74-3.4,12.4-6.5,25.7-11.1,37.6-4.4,11.7-12,21.1-20.2,30.5-13.7,15.6-25,35.3-26.4,56.3-1,11.1-.5,22.6-2.8,33.5-3.1,14.5-9.1,28.3-14,42.3-9.6,25.8-17.5,53.1-26.6,79.2-8.7,23.5-16.4,47.9-24.1,71.5-8,24-18.3,48.8-22.1,73.7-2.4,17.6-4.7,37.3-4.7,54.4.8,21.3,4,44.7,6.8,66.1,2.9,22.6,5.6,45.6,10.3,67.7,4,20.8-1.4,54.9-16.4,70.2-1.8,1.7-3.8,3.1-5.9,4.1h72.7c.2-3.3,2.1-6.7,4.7-9.3h.1c6.9-7,16.9-9.6,26.1-12.3,10.4-3.2,21.2-7,32.2-7.1,9.5-.5,19,2.1,28.5,3.4,6.9,1,13.5,2.5,19.9,3.6,5.7,1,11.7,2.4,16.7,5.1,7.9,4.3,12.3,11,11.3,16.7h47.1c-.1-1.1-.2-2.3-.1-3.6-.5-9.2.6-18.3,1.8-27.1,2.9-35,12-68.6,17.5-103.5.8-27.5,8.6-53.4,8.2-81,1.1-19.5-3.6-40.3,3.9-58.9,9.5-20.7,31.5-30.3,45.6-46.9,10-10.8,13-26.6,20.7-39.3,9.4-17.8,21-35.5,26.5-54.9,4.1-14.6,11.9-45.5,19.6-12.8,1.8,17.7.3,35.7,1.8,53.1.3,21.1-9,41.6-15.1,61.7-2.7,9.6-6.7,21.2.2,29,4.9,5,15.1,6,20.6,10.9,12.6,12.5,10.2,33.5,13.5,49.8,2.5,17.7,1.8,34.9,2.9,52.6,1.3,19.8,4.6,39.6,5.8,59.2,5.5,54.8,9,58.9-48.4,72.6-5.6,1.8-35.3,8.3-21.8,15.8,12.3,3.2,25.8-.3,38.7-.3,16.2.1,33.1,0,49.2-.6,39.7-.8,79.7,1.3,119.4-.6,16.5-1,32.6.4,48.7,2.2,24.7-1.3,50.6-2.5,75.5-2.9,29.4-.7,60,.4,89.6,1.2,35.3-.4,71.9-2.9,107.2-1.5,8.2.7,15.9,1.9,23.5,2.1,14.4-.2,30.3-3.4,45-3.3,10.9-.4,21.7.4,32.7.4,12.7-.4,24.4-5.6,36.6-3.4,14.3,4.1,30.1,3.4,45.3,2.8,15.8-.4,31.9.2,47.9.1,81.3-.2,163.1-3.5,244.2.9,11.6-.3,24.5,0,36.3.6,20.6,1.3,1.1-11.4-5.4-13.5-38.1-12.9-75.6-11.1-63.4-64.2,1.3-16.9,1.1-38.3,3.2-55.8,1.8-11.5,3.9-23,4.6-34.7.5-17-.8-34.7,2.8-51.4,2.8-10.3,1.8-22,5.9-31.8,4.5-8.4,15.9-7.2,23.6-10.9,16.4-9.5.3-39-3.4-53-6-16.7-12.9-33.8-11.4-51.6,1.5-10.2-2.2-51.8,10.7-53.7,9.2,5.7,9.7,23,14.6,32.7,6.5,17.7,16.6,33.3,27.6,48.2,10.3,16.8,20.8,34.5,34.7,48.3,10,10.1,24.4,15.4,31.6,28.6,11.1,19.1,1.7,42.2,4.9,63,.8,36.8,6.1,73.8,12.3,110.1,3.4,20.8,6.2,41.8,11.4,62.4,2.7,9.2,4.5,19.6,4.5,28.9-.8,11.9-6.4,19.4-14.5,24.1h63.8c-5.8-4.9-6.6-13.7-2-21.8,7.3-14.2,25.1-15,39.4-15.3,7.4,0,15.4,0,22.8,0,3.8,0,7.9.4,11.6.6,4.3.1,8.2,0,11.7.3,10.1,1.1,17.5,1.9,28,5.9,6.4,2.8,13.2,5.3,19.1,9.2,9.2,6.2,16.4,15.7,8.4,21.1h97.3c-9-1.4-17.7-4.3-24.6-9.8-11.4-8.8-17.3-23.4-20.4-36.9ZM2200,1769.7c1.9,7-11.6,2.2-15.2,8-12.2-5-24.3-10.3-36.9-14.3-10.3-3.4-21.1-5.3-30.3-10.9-3.3-2-7.9-5.5-5-9.3,3.1-4.1,15.3-3.2,21.7-1.2,5.6,1.4,11,3.5,16.2,5.5,10.7,3.7,20.7,7.7,30.6,12.8h.2c6.9,3.8,14.9,9.5,18.7,16.7ZM2142.8,1773.3h-.2c-9.7,2.2-30.4,5.2-38.5-1.8-5.2-6,4.2-10.2,9.5-10.7,4.1-.6,8.6-.5,12.8,0,8.3,1.1,36.9,7.3,16.5,12.5ZM2173.2,1720.4c3.9,1.4,7.9,3.1,11.1,5.7,4.8,4.2,7.7,9.9,4.7,13.2-2.8,3.3-12.5,1.4-20.2-1-5.1-1.5-10.9-3.1-16.5-4.2-12.6-2.8-26.6-4.1-37.3-11.7-9.1-6.6-10.8-18.4-13.6-28.9-3.3-12.2-6.6-24.3-10.1-36.4-3.7-11.9-7.9-21.6-12.6-32.9-5.4-13.7-12.7-30.6-18-43.9-2-5.6-3-10-1.3-14.4,1.2-3.2,4.2-5.2,7.7-4.8,5.7.6,10.8,6.3,13.7,11.7,6.1,12.6,8,27,13.3,39.9,3.8,10.1,9.2,20.5,12.5,31.2,2.8,8.6,4.3,17.8,5.5,26.7,3.4,23.2,4.6,39.3,31.4,44.3,9.8,1.8,19.9,2,29.4,5.4h.2ZM2131.4,1578.3v.2c8,15,14.2,30.6,20.3,46.3,3.8,10.4,8.6,20.7,11.1,31.5,1,5,0,11.9-5.7,11.2-4.7-.7-9-6.3-11.5-10.9-4.3-8.8-7.3-19-11.4-27.8-3.7-8.5-7-16.7-9.9-25.4-2.8-8-5.6-17.8-11.6-23.6-3.5-3.1-5.1.4-4.9,3.4.3,5.4,2.5,11.3,4.9,17.8,3.8,9.6,7.4,19.2,11,28.9,6.1,15.3,11.1,33.7,24.3,44.7,5.6,4.5,13.7,7.6,18.8,11.4,1.7,1.3,3.5,2.7,4.4,4.5,2.1,3.4-1.4,7-5.6,8.3-4.4,1.6-10.6,1.8-16.1.3-11.6-2.8-19.2-12.5-23-23.3-6.1-17.1-12.9-34.1-19.5-51-5.2-14.5-10.6-30-16-44.7-5.1-13.7-1.4-26,15.9-23.4,11.3,2.4,19.3,11.8,24.4,21.7ZM1687.6,1265.3c7.8.7,15.7,2.3,23.5,3.2,9.6,1.4,19.4,2.9,26.7,9.1,3.8,3.2,7.7,8,6.8,13-.7,4.4-5.3,8.2-10.7,10-8.2,2.6-17.4,1.5-26.5.8-9.1-.8-18.4-2.2-27.7-3.2-11.2-1.5-20.6-.7-28.6-7.3h-.1c-4.6-4.4-4.9-11.2-1.8-16.9,3.1-5.3,9.1-8.9,14.9-10.3,8-1.9,15.6,1,23.6,1.7ZM1715,1371.2v.2c-.7,13.6-17.3,15.5-28.5,15.5-9.3-.4-24.5-1.6-29.2-10.5-2.6-5.2-.9-11.5,2.5-16.2,8.6-11.8,27-17,39.7-10.6,8.5,3.9,15.9,12.1,15.3,21.6ZM1613.7,798.6c-3.8,6-13.9,14.9-15.4,2-.5-4.2.6-10.3,1.9-16.2,1.6-7.1,3.1-14,4.6-21.2v-.2c1.9-7.2,3.8-33.4,13.7-32,6.5,2.7,6.7,14.6,6.9,21-.2,15.8-2.9,33.5-11.7,46.6ZM1502.3,394.5h0c6.8-1.9,11.7,16.3,12.7,22.1,4.2,21.3,5.5,43.4,7.1,64.7.4,10,1,20.5-.3,30.5-.8,6-4,14.6-9.3,15.9-4,.5-5.4-5.8-5.1-9.4,0-4,.7-8.7,0-14.2-.3-3-.6-6-.9-9-2.6-19.9-4.1-39.5-5.5-59.8,0-9.3-6.3-35.6,1.3-40.6ZM1332.8,346.2c7.6-3.7,16.8-4.2,25.2-4.3,7.7-.1,15.4-.3,22.6-.5,10.3-.3,24.2-.6,35.9-.8,9.4,0,20.8-1.2,29.2,2.2h.1c10.6,5,11.1,18.1,10.8,28.4-.3,7.8-.6,15.5-.7,23.5-.3,10.5-.3,21-1.8,31.2-1.3,9-4,17.4-6.8,26.1-6.4,19.3-10.1,38.2-14.8,58-3,12-3.9,27.8-15.1,34.9-7.9,4.2-17.8,3.1-26.6,3.3-14.2-.7-32.2,2.7-36.9-13.7-2.6-9.1-4.2-18.7-6.9-28-6-21.2-13-42.6-20.1-63.2-2.6-7.9-5.1-15.7-6.2-22.9-1.5-10.2-.9-19.8-.9-30.5.4-14.8-3-35.7,13.1-43.6ZM1246,513.5c7.8-12.6,11-22.4,11-38.3.6-20.9,2.6-42.3,6.8-63,4.2-18.5,12.6-21.3,14.8-.5.3,3.3.2,6.8,0,10.1-.8,13.2-1.8,23.9-2.4,36.7-.7,13.2-1.3,28.2-1.9,41.8-.8,10.5.4,20.4-3.3,27.3-5.4,8-12-9.3-17.5-10.7-1.2-.5-2.3-.7-3.5-.7-2.9,0-5.7,1.6-6,1.1h0c0-1.2,1.4-2.7,2-4ZM1178.3,807.1c-2.1,3.4-8.5,9.3-12.2,5.5h0c-2.4-2.4-1.4-11.8-1.9-17.1-1.3-10.6-5.8-20.7-7.1-31.4-1.3-10.3-3.8-26.3,1.8-35.3,4.4-5.8,13.1.6,15.2,6,2.7,6.7.9,13.8.6,21.1-.6,6.8.7,14.1,1.7,20.9.8,9.5,6.6,22.2,2.1,30.5ZM1175.9,635.1c-4.2.1-8.5.3-12.7-.4-9.7-1.4-14.8-5.9-8-11.4,6.4-5.2,14.6-6.9,22.3-9.8,3.3-1.3,6.7-2.7,10-4,14-5.3,28.5-6.8,43.5-6.9,8.7-.2,17.1-1.3,25.7-1,17.3.6,34.6.5,51.9,0,11.6-.2,23.3.3,35,0,10.9,0,22.3-1,33.1-.8,17.9.5,35.5.4,53.4-.5,25.3-.6,50.3-1.4,75.4-2.5,22-.3,43.9-.5,66,1,17.5,1.4,35.2,3.6,52.4,6.9,7.1,1.9,16.2,6.1,11.1,12.6-4,4.8-11.4,7.1-17.8,12.1-3.3,2.5-6.7,5.6-9.4,8.5-1.5,1.6-2.8,3-4.1,3.9-1.2.4-1.5-1-2.1-1.8-1.3-2.4-3.5-7.8-8.3-9.9-7.5-3.2-18.5-1.7-27.7-1.9-26.5.2-51.7.7-77.6.9-13.1,0-26.8-.6-39.1-.6-55.6,1.2-120.5,2.6-176.5,4.2h-.2c-31.5.8-64.4.9-96.3,1.7ZM1565.9,671.4c-7.9,1.9-16,1.3-24.2,1.6-11.5.3-23.1.4-34.5.9h-.2c-26.7,1.4-53.4,1-80.1,1-19.9,0-40.4,1.2-60.2,1.2-16,0-33.2-.4-49.5-.4-15.6.4-30-.2-45.2-.4-13.7-.2-27.5.8-41.2,0-5.1-.3-10.9-1.3-15.2-2.7-5.6-1.9-8.6-4.4-7.6-6.8,4.3-7.8,28.1-5.1,37.3-5.5,9.3,0,18.8,0,28.2-.1,16.6-.2,30.6-1,46.7-1.2,6.9-.4,14-1.2,20.6-1.2,10.9-.1,21.4.1,32.6.9,6.8.2,13.7,0,20.4,0,44.7.2,89.4-2,134.2-2.3,12.6-.1,25.4-1,38-.7,19.4,1.5,14.5,12.4,0,15.8ZM1194.5,730.9c.1-4.5.8-9.5,2.3-13.5,2-5.7,5.6-7.7,7.9.4,2.1,7.5,2.8,17.7,4.8,26.1,2.8,14,11.2,28.9,23.4,35.9,8.6,5.4,18.4,5.7,28.4,5.6,11-.1,23.5-.2,34.3-.2,24.4,0,48.5-8.9,65.1-27.4,14.1-15.2,28.7-36.1,50-17.3,6.2,5.2,11.3,12,17,17.9,8.3,9.1,19,15.5,30.5,19.4,17.3,5.7,35.2,5,53.5,4.3,16.2-.9,40.1.9,51.3-11.8,7.6-8.1,9.4-19.6,11.5-30.2.9-4.1,1.9-8.1,3.1-11,4.7-11.6,8.1-3.7,8.3,4.2,0,15.4-3.2,29.8-6.3,45.4-2.7,13.7-6.6,27.9-11.8,40.9-5.2,12.9-11.4,24.8-18.4,37.6-6.9,12.1-12.6,23.7-20.5,34.2-9,11-17.3,5.7-24.4-3.8-18.7-26.1-50.9-37.7-82.1-37-11,.5-22.2,1.8-33.4,1.1-18-1.3-32.7-1.3-49.9,5.5-13.7,5.3-27,12.3-38.1,22.1-7.3,6-14.5,14-21.2,19.8-7.7,6.5-14.3,3.2-19.3-3.8-5.6-8.4-10.8-19.6-16.3-28.7-7.3-12.6-14.8-26-21.4-39.1-4.8-9.3-9.2-17.5-12.6-27v-.2c-3.1-8.3-5.5-17-7.8-25.6-3.6-14.4-8.2-28.9-7.8-43.5ZM1350.3,1104.7c9.6,2.1,20.4,4.7,30.2,5.7,6.5.7,13.3.9,19.4.2,4.4-.6,9.5-1.8,14.4-2.5,10.5-1.7,21.7-3.4,32.1-6.4,21.7-6.4,41.7-17.4,59.8-31.4,12.6-10.7,23.8-22.1,34.9-34.5,5.6-5.3,28.6-39.4,31-17.7,1.4,22.3-8.2,48.3-19.7,67.6-18.1,30.3-47.1,50-73.7,71.6-19.2,15.4-38.2,32-58,46.1-7.1,4.9-13,11.6-21.2,14.1-13,3.7-24-7.3-34.2-14-10.7-7.8-21.7-13.8-31.9-21.9-8.3-6.6-15.4-13.4-23.9-19.7-13.4-9.6-27.3-21.2-40-32.1-9.8-8.6-20.1-16.3-28.1-26.3-7-8.4-11.9-17.5-17-27.6-6.1-11.6-9.8-24.2-11.9-37.1-1.6-8.7-4.1-17.8-3.1-26h0c.9-7.8,7.6-5,12.6-.4,7,7.1,12.1,17,18.6,24.8,10.2,13.5,21.7,23,35,32.6,4.3,3.1,9,6.6,13.3,9.2,5.4,3.1,9.8,4.4,14.5,7,6.6,3.3,10.8,6.7,18.1,10.3,9.3,3.9,19,6,29,8.4ZM1345.4,918.2c5.5-3.9,13.1-4.7,20.1-5.5,17.1-1.7,33.9-1.4,50.9-.4h.2c7.5.5,15.8,1,22.7,3.2,8,2.6,10.1,7.8,1.3,11.1-10.1,3.9-25.6,3.1-37.1,3.3-9.8.1-19.4.2-29.2.3-5.9,0-12.1,0-18-1-7.8-1-17.6-6.1-11.1-11ZM1125.3,1059.3v-.2c4.8-13.4,18-14.3,29.4-18.3,5.5-1.9,10.5-3.8,15.8-2.3,9.1,3.6,11.8,16.5,14.8,25.6,3.6,12.2,7.7,24.2,13.5,35.4,8.3,15.9,17.9,31.4,30.8,44.1,14.5,13.7,31.7,23.2,47.7,35.1,11.5,8.3,24.1,14.6,36.3,21.3,11.6,6.7,22.8,14.3,34.9,20.7,34.2,18.3,51.6,18.2,85.6-.5,8-4.3,15.6-9.2,23.2-14.1,12.8-8.2,26.6-15.9,38.9-24.8,11.5-8.8,24.1-15.8,36-24,10-6.6,18-15.2,26-24.1,8.2-8.7,16.6-18.6,23-28.5,5-7.6,6.9-16.2,9.8-24.6,3.6-9.5,6.2-20,11.2-29.2,3.4-6.5,9-11.7,16.5-12,8.2-.1,19.3,4.2,27.3,8.4,20.9,10.9,17.1,31.5,15.6,51.4-1.7,22.9-5.2,45.3-8.9,68.1-1.4,8.9-2.6,18.3-3.4,27.6-.8,8.6-1.8,18.4-7.5,24.9-4.2,5.1-10.1,8.7-14.1,14-4.8,6.2-7,14.9-8.1,23.1-1.3,9.7-2.5,19.6-3.5,29.6-.5,8.7-2.2,20.5,4,27.1,3.3,3.5,9,5.1,11.2,6.7.7.6,1.1.9.8,1.6-.3.5-1.1,1-2.4,1.5-1.2.4-2.5.8-3.8,1.1-5.2,1.1-12.7,1.4-19.1,1.7-43,1.6-85.5,1.5-128.5,3.3-10.4.5-20.8,1.7-30.7,1.7-11.5.2-22.9-.5-34.5-.6-19.4.3-38.6.6-57.9.7-22.9.5-45.7.8-68.6,1.2-17.4.3-34.6,1.3-51.8,1.7-17.2.2-35.1.9-52.2.8-4.4-.4-15.7-.2-15.9-4-.2-1.9.6-3.6,1.6-6.4,1.3-3.4,3.1-7.7,3.4-12.8.6-9.9-2.1-20.3-3.5-30.1-1.1-7.1-2.5-12.6-3.6-18.6-1.1-4.9-1.7-10-3.1-14.8-2.3-8-8.2-15.3-13.8-21.6-1.9-2.1-3.6-4-5.2-6-5.9-7.7-4.5-18.4-5.9-28-1.7-12.3-3.6-24.2-5.5-36.5-2-14.5-3.7-31.3-5.4-45.5-.7-6.8-1.4-13.3-1.9-20.1-.8-10.3-1.9-21.5,1.8-30.9ZM1045.6,1284c5.8-2.5,14.1-2.8,20.9-3.6,9-1.2,17.6-3,26.2-4.7h.2c7.7-1.6,15.4-.4,22.9,1.3,4.7,1,9.3,2.1,13.3,4.1,5.6,2.6,12.1,8.7,8.9,15-4.1,8.6-15.6,9-24.2,9.9-6.4.5-12.8,1-19.2,1.5-13.3,1-25.8,1.9-38.8,1-7-.6-15.7-2.7-19-9.2-3.2-6.7,2.3-12.7,8.9-15.3ZM1135.5,1377.5v.2c-1.4,5.6-7.1,9.7-13.1,11.1-10.8,2.6-27.9,4.6-37.8-.3-8.4-4-9.2-14.3-6.4-22.2,3.8-10.5,15.2-14.1,26-14.6,6.9-.2,14.1-.1,20.3,3.1,8.1,4.3,13.9,13.7,11,22.7ZM640.2,1645.1v-.2c2.3-11.8,6.4-23,10.8-35.2,4.4-12.1,8.2-26.8,18-35.8,6-5.6,17.2-10.6,23.3-3,4.2,7.1.3,15.8-2.8,24.8-4.6,11.1-8.9,22.3-12.8,33.8-4.1,11-6.3,23.4-12.4,30.8-11.7,12.8-26.3-.6-24-15.2ZM713.3,1638.9c-2.3-5-4.9-10.3-6.4-16.1-1.4-5.1-1.9-10.5-1.9-15.9.4-12.5.5-29.8,13.3-34.2,5.2-1.2,8.8,3.7,10.6,7.9,2.5,5.2,1.9,11.9,4.5,11.5,1.9-1,2.8-3.2,4.3-5.1,2.2-3.1,5.3-7.8,8.3-9.7,5.7-3.4,6.1,3.8,5.8,8.9-.2,3.3-1.1,6.7-2.1,10.2-3.8,12.6-9,25.4-11.2,38.5-2.9,17.2,4.5,15.3,19.3,10.5,10.4-2.9,20.8-6.4,26.9-16.3,3-4.5,5.2-9.8,6.8-14.7,2-5.4,2.8-14.1,7.9-15.2,3.2.3,3.5,4.4,3.8,8,.4,7.3-1.7,15.3-4.2,22.4-4,12.2-9.3,25.2-21.3,30.8-6.8,3.4-14.3,4.6-21.7,6.3-11.7,2.5-22.8,7.4-33,13.6-18.1,11.4-26.1,4.3-34.9-12.6-2.6-5.2-4.8-10.9-4.7-16.9,0-5.6,3.6-16.5,10.5-10.9,6.7,5.3,8.3,19.4,15.2,22.2h0c3.1.6,5.3-2.2,6.4-5,2.3-6.1.4-12.1-2.4-18.3ZM754.5,1611.4c1.3-9.8,4.8-22.2,12.8-27.6h.1c5.2-4,13.8-3.3,16.5,3.1,4.9,11.4-7.5,48.8-22.9,45.5-7.9-3-7.4-13.3-6.5-21.1ZM744.7,1727.6c10.7-2.5,21.1-11.5,32.9-12.1,15.7-.5,7.3,12.9-1.4,18.5-6.5,4.6-14.1,8-22,9-15.8,2-36.3-6.7-41.2-22.6-3.2-11.6,4.4-24.1,12.9-31,7.6-5.8,14.5-7.1,22.8-10.3,5.7-2,12-3.8,18.1-4.5,18.5-1.7,27.8,3.1,35.5-17.2,3.4-8.7,6.1-18.2,8.9-27.2,2.4-7.4,4.8-14.1,7.9-17.3,6.8-6.7,16,1.2,17,9,2.7,13.4-6.4,26.1-12,38.2-6.7,11.9-13.7,28.7-26.9,34.2h-.2c-7.6,3.3-17.6,3.9-26.1,6-7.7,1.7-14.9,4.9-21.8,7.6-5.2,2-10.9,4.4-14.9,8.3-8.4,8.2,2.4,13.8,10.4,11.5ZM625.6,1697.3c3.9-1.7,10-.7,13.1,1.9h.1c4.1,3.4.6,8.6-3.3,10-4.5,1.8-11.3-.1-13.8-2.9-3-3.3.5-7.6,3.9-9ZM588.2,1787.5c6.5-5.3,14.7-10.7,23.2-10.9,2.7,0,6,.6,6.8,3.4.8,5.8-8.6,13-13.1,17.1-5.7,4.2-16.1,13.3-22.1,11h0c-6.8-3.4,1-17.1,5.3-20.6ZM614.4,1859.3c-6.9,8.1-10.4,17.6-10.7,28.6-.2,19.6,1.4,39.2,2.4,58.6,1.3,19.7,3.3,39.1,3.6,59.1,0,6.7-.9,14.4-4.2,19.8-5,7.5-12.4,6.8-14.7-2-2.9-12.1-2.6-27.5-4.2-39.9-2.3-22.6-2.9-47.1-4.8-69.5-.6-7.2-1.1-14.2-1.4-21.5-.4-11.2-1.1-22.7,2.9-33.5,5.4-14.9,17.7-25.8,32.4-29.6,5.6-1.6,11.1-4.1,14.9-8.7,2.9-3.5,5.1-8.2,4.7-12.7-.3-3-1.4-6.3-4.5-7-3.2-.6-8,2.9-13.4,7.6-6.8,6-13.3,12.7-21.4,16-4.3,1.7-8.1,1.5-8-1.4,1.9-6.5,12.8-12.7,18.4-17.4,8.9-6.6,15.9-15.7,22.3-24.4,3.6-5.1,9.4-13.3,9.3-18.8-.2-8.4-13-2.3-17.9-1.3-5.1,1.4-14.8,4-17.2-.6h0c-.9-2.4,1.9-6.2,6.9-8.8,6.8-3.7,16.8-4.6,24.9-5.1,7.2-.2,15.6-.9,20.8,4.5,5.5,7.3,1.6,22.1.5,31.8-2.1,16.7-5.8,33-7.8,49.6-.7,5.9-1,11.9-.7,17.9.8,11.1,1.9,23.2-4.4,32.9-4,7.5-21.1,18.2-24,5.6-1.5-10.1,6.9-18.6,10.8-27,1.7-3.6,5.6-10.8.8-13.3-5.9-1.2-12.5,6.2-16.4,10.6ZM687.6,2000.1c-.9,5.6-1.4,14.5-5.6,17.7-5.6,1.8-9-14.3-8.8-19.6,1.1-17.7,1.7-34.5,1.9-52.6,0-8.3,1.3-15.5-1.1-20.1-4-4.4-8.9,5.4-10,9.3-4.3,15.1-3.4,31.1-3.9,46.7-.4,12,2.2,23.7-1,34.8-1.9,4-5.1-2.2-6-4.4-2.8-6.8-3.5-14.9-4.6-22.4-1-5.1-3-16.8-7.9-17.2-2.2-.2-4.4,6.5-4.6,10.6-1.7,9.7,4.5,33.1-5,38.9-3.7,1.7-8.6-7.1-9.7-14.1-2.4-13-2.2-26.4-2.8-39.6-.3-10.8-.4-21.6-.2-32.4,0-8.1.9-17.7,6.3-23.9h0c6.2-7.6,11.7-3,12.6,5,1.2,7.3-1.4,16.6,2.2,23.5,3.7,3.9,8.6-7.5,10.1-13.3,3-11.4.2-28.1,6.6-37.3,6.1-5.2,20.5,7.3,26.2,11.4,20.5,15.7,14.5,49.4,9.7,71.8-1.8,9.6-3.3,18.7-4.4,27.2ZM722.3,1965.3c-1.6,12.3-2.1,24.6-3.1,37-.6,7.6-1.9,17.8-7.3,22.4-8.9,6.6-15.6-9.7-15.7-17.4-1.2-14.9,4.3-28.1,6.5-42.7v-.2c1.3-7.4,2.1-16.3,2.4-24.7.6-8-.4-27.9,8.7-28.3,5.1.1,9.5,6.3,11.1,11.1,4.7,13.9-.8,28.1-2.5,42.7ZM760.2,1919.7c-.3,8.3-1.2,16.4-2.1,24.4-2.5,20.4-6.9,40.1-11.1,60-1.9,9-3.3,23.1-10.7,28.5-1.7,1-3.5.4-4.8-.9-6-6.9,0-19,1.4-27.4,2.9-13.2,5.1-28.5,7.2-42.8,1.2-10.2,2.9-21.1,1.8-31.3-1.5-17.2-17.8-23.9-31.4-30.1-33.3-14.5-59.1-26.6-51.8-68.4,1.4-9.8,3.4-20.1,5.4-29.8,1.9-7.5,3.1-16.1,11.4-15.4,4.6.7,9.7,3.9,14.1,6.5,4.6,2.7,9.1,5.5,14,7.7,17.2,8.1,38.4,10.1,51.8,24.1h.1c5.3,5.3,9.9,16.7-1.1,18-6,.4-12.1-1.9-17.7-4.2-10.2-4.4-19.5-10.5-29.7-16.6-12.3-7-27-16.2-34-5.2-4,6.9-3.8,15.9-2.6,23.8,1.8,14.7,14.2,21.2,26.6,25.7,11.1,3.8,21.9,8.6,32.6,13.3,9.1,4.3,19.9,7,25.3,16,4.6,7.1,5.8,15.7,5.4,24.2ZM674.5,1756.4c3.9-.9,8.2,0,12,1.4,8.6,3.2,16.6,10.2,23.8,16.3,6.4,5.7,12,9.8,15.5,15.9,4.6,10.9-14.5,3-18.9.7-5.8-2.8-11.9-6.3-17.8-9.5-6.4-3.6-12.9-7.4-16.8-11.6h-.1c-5.3-5.5-4.6-11.5,2.4-13.1ZM755.3,1877.2c-4.6,0-9.2-1.3-13.7-2.9-11.4-4.5-22.6-10.4-33.6-15.5-8.5-4.2-18.3-8.5-23.3-16.9-3-4.6-2.3-11.6,4-12.1,3.9-.4,8.4,2.1,12.5,4.6,8.6,5.7,18.5,12,28.3,16.4,7.8,3.8,15.9,6.7,23.1,11.4h.2c2.7,2,5.3,4,7.2,6.6,3.4,4.7,1.6,8.3-4.8,8.4ZM858.3,1664.3c-6.3,15.3-15.4,34.1-22.5,50-4.2,9-7.2,17.9-11.4,26.1-4,7.8-7.8,13.2-13.9,20.9-7.5,9.5-16.7,19.4-29,21.6-5.3,1-10.7.5-15.8-1.1-4.3-.8-18.3-8.6-17.8-1.4.1,3.2,1.7,7.2,2.6,10.5.4,1.9,1,3.6.3,5.3-1.4,3.3-10.1.5-15.1-2.9-7.7-5-14.1-11.9-19.9-18.9-7.7-9.3-15-18.8-22.5-28-10.1-12.9-20.6-25.2-38.6-21-10.4,2.3-20.9,8.9-31.6,11.8-3.5,1-17.8,3.3-16.3-3h0c5.6-11.1,38.2-10.7,48.3-29.2,9.1-17.4-13.5-16.3-22-22.7-4.3-3.1-3.9-9,1-12.1,7.7-4.6,19.3.8,26.3,5.2,11.9,7.9,19.7,19.6,27.8,31.6,21.9,28.5,34.4,49,73,44.9,40-3.1,45.2-30.6,61.8-60.3,5.6-9.9,10.9-20.2,15.4-30.5,3.5-7.6,8.7-20.6,16.2-22.6,3.3-.6,5.2,2,6.1,5.3,1.7,6.7,0,14.2-2.4,20.6ZM896.2,1589.8c-.9,6.6-3.3,14.5-9.7,17.5-9.5,3.6-23.2-12.6-31.4-17.6-11.4-7.9-23.6-14.4-35.9-20.5-12.4-6.4-24.4-11.7-37.8-16.1-22.2-7.3-44.8-13.9-67.6-19.1-5-1.1-9.9-1.9-15-2.7-8.3-1.3-20.4-2.9-24.3-10.7-4.1-9.6,5.9-22.1,15.5-26h.2c12.2-5.2,26.2-2.4,39.1-1.9,21.4,1.2,41.6,7.3,61.7,14.4,14.6,4.9,28.6,11.5,42.4,18.2,17.9,8.9,35.3,19.4,50.5,32.2,5.3,5,9.8,11.3,11.9,18,1.4,4.7,1.1,9.3.4,14.3ZM938,1374c-3.2-12.4-7.3-24.6-9.8-37.1-.8-6.3-8.5-49.4-11.5-23.9,3.8,40.2,4.5,81.7,4.7,122.1-1.1,23.5,3.9,48.1-7.1,69.6-6.6,11.4-11.6,39.2-24.1,43.1-8.4,0-17.5-9.9-25.6-15.8-14.6-11.6-31-21.7-47.3-30.6-18.7-10.4-36.9-22-56.7-29.9-22.2-11.2-51.8-13.9-43.8-46.3v-.2c3.2-39.1,16.3-76.3,32.6-111.7,14.6-31,28.9-61.5,50.5-88.5,23.9-27.1,52.2-49.7,83.5-67.6,24.9-14.5,52.6-24.1,78.6-36.3,30-16,42.4-8,45.3,25.2,4.7,28.1,5.9,57.5,11,85.4.4,32.9-30.5,42.5-11.9,81.8,7.3,15.3,23.8,23.7,25.9,41,1.4,14.7-3.2,28.4-5.2,43.1-2.9,17.8-5.4,36.8-8.2,54.4-6.9,39.7-11.4,76.8-20.8,117.1-1.7,4.6-3.4,42.6-11.6,29.8-11.4-32.9-15.1-68.8-22.3-102.9-10.1-39.7-17.5-81.6-26.2-121.9ZM1713.6,1868.3v.2c0,13.6-.7,26.8-1.5,40.3-.8,20.7-.5,41.1-.8,61.9,0,7.6,0,15.4-.1,23.2-.2,9.9-.1,23-9.7,28-8.7,4.2-20.9,1.1-30.6.4-23.6-1.9-47.1-2.9-70.7-5-16.4-1.3-33.2-1.5-49.8-2.6-20.6-1.8-40.9-4.2-61.6-4.4-39.8-1.1-80.4-1.6-120.6-1-20.8.7-42.8,0-63.4,2.5-9,1.2-17,3.1-25.9,4-16.1,1.6-34.6.9-51.1,2-13.5.6-26.7,2.5-40,3.6-19.7,1.7-40.5,1.2-59.8,3.5-19.6,2.3-38.5,5.6-39.2-20.5-.2-17.5-.8-35.3-1.7-52.8-.6-11.4-.6-22.4-1.2-33.6-1.7-22.9-3.7-46-1.9-69.1,1.9-17.7,16.4-29.1,28.7-40.2,12.4-10.8,24.4-20.9,37.8-30.4,13.5-9.9,25.4-22,38.2-32.7,11-8.8,23.4-16.2,34.2-25.6,9.8-8.5,18.7-17.2,28.2-25.9,6.9-6.1,15.3-12.9,21.8-18.8,10.2-8.7,21-15.9,31.7-24.4,10.6-9.5,21.4-18.9,32.6-27.6,13.2-9.6,26-18.9,38.4-29.6,15-13.2,24.5-9.3,39,1.2,11.9,8.3,25.1,18.2,36.6,28,12.2,10.6,24.3,17.3,36.8,26.6,12,9.4,24.2,20.3,36,30.3,10.3,8.1,18.5,13.3,28.1,20.6,10.7,8.5,22.3,19.1,33,27.9,17,14.7,36,27.2,53.4,41.3,17.9,14.6,34.4,30.6,52.9,44.2,20.6,15.1,22.5,30,22.1,54.5ZM1817.1,1790.1c-16.1.4-31.8-4.6-44-15.4-7.8-6.9-17.4-12.6-25.2-18.9-12.8-10.3-24.2-20-37.7-29.6-9.9-8.4-20.9-18-31.1-25.3-6.6-4.5-12.5-11.3-18.2-15.9-7.4-5.8-14.6-9.7-23-15.6-20.1-16-39.6-32-60.4-47.1-11.4-8-23.2-19.5-33.7-28.8-12.4-10.2-24.9-20.1-36.9-30.2-7-5.6-14.3-10.2-21.6-15.9-12.7-9.8-24.4-21.5-37.1-31.2-5-3.8-10.5-7.3-14.9-11-4-3.5-8.6-6.6-12.3-10.3-3.9-4-7-8.9-12.1-10.9-14.5-6.7-27.8,2-38.3,11.8-8.6,7.9-18.5,14.9-27.2,22.8-16.8,13.9-32.6,25.2-49,38.9-12.3,10.3-25.1,22.5-37.8,32.6-11.5,9.1-22.3,15.8-33.3,25.5-8.9,7.7-18.6,16.1-27.6,24.1-8.2,6.6-16.7,12.3-24.6,18.5-15.1,11.6-29.6,25-44.9,37.1-20.2,15-36.6,30-56.1,45.6-6.5,5.7-14.5,10.9-21.4,15.6-6.7,5.3-12.4,10-18.4,15.6-3.1,3.5-6.9,6.2-10.9,9-4.4,3.2-9.3,6.8-14.6,9.3-6,2.7-11.8,3.8-18.8,4.5-4.5.4-31.8,3.7-29.5-4.5.9-2,2.6-3.7,4.8-6,2.3-2.3,4.9-4.8,7.3-7,4.2-3.8,7.6-5.7,10.7-9.6,3.5-4.5,9-6.3,12.9-10.3,2.4-2.8,5.3-5,8.3-7,5.9-5.2,11.4-11,18-15.9h.1c6.8-6.2,15.2-14.2,22.3-20.9,8.4-8.1,14.7-15.6,23.7-21.6,6-4,12.9-8,17.8-12.5,2.4-2.3,4.6-4.8,6.7-7.5,3.8-3.4,7.7-6.8,11.9-9.9,17.2-12,33.3-29.8,49.6-43.1,8.1-6.5,15.3-12.9,23.2-19.1,4.4-3.8,8.2-8,12.7-11.4,18.4-15,38.1-31.1,56.2-46.9,13.8-13.1,30.4-25.7,45.6-37.7,9.6-7.8,19.3-17.8,29.4-26.2,5.6-4.3,11.7-8.6,17.2-12.5,4.1-3,7.1-5.4,10.4-9.1,1.2-1.6,2.6-3.2,4.3-4.4,5.2-3.9,9.2-8.7,13.7-13.4,5.8-4.7,11.1-10,17.7-14.1,14.6-10.4,24.3-3.8,37.5,7.1,7.5,6.3,15.1,12.7,22.4,18.5,9.5,7.7,16.7,14.4,26.4,21.5,12.4,9.2,23.9,18.7,35.9,29,9.7,8.3,19.6,17.3,29.4,25.3,10,7.9,17.6,11.7,26.5,19,8.5,6.5,17.5,15.3,25.9,22.6,10,8.4,19.5,17.6,29.4,25.7,5.2,3.8,11.1,8.9,15.9,12.3,3.2,2.1,7.1,5,9.5,7.3,2.7,2.4,5.5,4.9,8.8,7,3.3,2.1,7.5,6.1,11.3,8.8,19.4,15.1,38.6,35,57.2,51.2,7.4,6.3,16.7,11.7,24,17.6,6.2,4.3,11.3,9.8,16.2,15.5,9.7,9.2,20,16.5,31.3,25,11.1,8.6,21.3,19.3,32.2,27.9,5.1,4,10.4,7.4,14.1,10.9,14,12.2-8.2,13.6-17.9,13.5ZM1883.4,1515c-12.9-30.6-15-64.5-16.3-97.2-.1-20.7-.2-41,.9-61.9.5-12.8.8-25.8,1-38.5-.2-3.1.4-17.5-2.5-14.9-3.9,5.9-5.3,19.3-7.2,27.4-6.6,27.6-13.2,56.2-18,84.1-4.7,22-11.8,44.3-16.1,66.5-3.5,15.8-6.4,31.1-9.2,47.3-2.8,15.9-5.3,33.9-12.6,48.1-7.9,11.4-11.4-25.3-13.3-30.6-7.4-27.2-11.1-56.1-17.9-83.2-4.1-15.3-7.7-31.1-9.2-47.2-1.1-12.7-4.4-23.2-6.4-34.9-.9-15.2-11.8-36.2-.8-49.2,5-6.1,13.5-11.2,18.3-18.6v-.2c8.9-13.6,8.4-31.9,2.9-46.8-4.3-10.7-10.6-20.9-13.9-31.8-4.3-14.6-2-30.5.6-45.1,3.1-15.7,4.4-32.1,7-47.8,2.2-10.6,1.4-28.6,13.5-32.4,11.7-3,33.6,9.6,45.8,13.8,18.2,7.3,37.4,13.9,54.9,22.8,16.6,7.1,32.2,14.8,46.4,26,9.6,6.9,18.3,12.3,27.1,19.6,10.9,9.3,21,20.7,30.5,31.2,15,17,26.4,34,37.3,53.5,10.7,17.5,18.6,35.2,25.6,54.4,7.6,20.3,14.4,40.7,19.9,61.8,4.4,17,8.3,40.5-6.2,53.2-12.6,8-28.3,10.3-41.4,18.5-24,13.8-47.5,28.8-70.8,43.8-8.2,5.5-16,11.2-23.5,17.5-9.2,6.7-20.6,22.7-33,14.5-5.6-4.2-10.1-15.6-13.4-23.6ZM1894.3,1573.3c1.3-9.3,6.7-16.6,13.8-23,14.1-12.6,28.9-22,45.3-31.1,18.5-10.3,36.6-20,57-26,10.8-3.3,21.2-7.3,31.7-9.7,6.3-1.5,12.6-1.9,19.3-2.4,7.2-.7,14.5-.8,21.9-.7,8.4-.1,16.5,0,23.2,2.6,8.6,3.5,16.2,11.9,16.9,21.4h0c.2,11.3-12.8,12.2-21.3,13.4-5.9.8-12,1.8-17.7,3.2-9.1,1.8-17.4,4.5-26.1,6.9-14,3.5-28.3,7.3-42,12.8-20.1,7.6-39.5,17.4-57.9,29-9.2,5.6-18.9,10.7-27.7,16.9-6.3,4.3-13.2,10.2-19.6,13.3-15.4,7.9-19-15.3-16.8-26.7ZM1982.3,1620.4c-3.8-4.8-10.3-11.3-13.5-17.3-1.6-2.7-2.5-7.2,1.7-7.7,4.5-.5,10.4,2.5,14.7,5.5,17.1,12.6,30.7,34.4,40.8,52.9,2.3,4.5,4.5,9,6.7,13.6,3.3,6.8,7.4,13.9,9.4,20.9,3,12.1-4.2,10.7-11.6,2.9-6.7-7.3-11.2-15.6-16.7-24.1-5.1-7.5-10.5-19.9-19.1-22.7-10.7-2.8-21.4,9.9-32.3,3.1-3.4-2-6.1-5.3-8.1-8.8-3.6-6.3-8.6-23.1-1.3-26.4h0c5.2-1.5,13,3.8,18.1,7.2,3.6,2.2,10.3,8.1,13.6,7,1.4-1.5-1.5-4.7-2.5-6.1ZM2010.6,1772.1c-11.1-4.3-18.1-13.9-25.2-23.4-6.8-9.5-13.2-19.2-19.4-29.1v-.2c-3.3-5.1-6.4-10.1-9.6-15.1-5.9-9-12-16.5-17.7-25.3-6.8-10.3-14.4-21-17.3-33.4-.7-3.1-.9-6-.3-8.8,1.3-6.6,7-12.6,13.5-9.7,6.6,3.2,9.8,11.3,13,17.8,3.3,7.2,7.1,14.1,11.3,20.8,11.8,19.1,26.1,38.1,38.2,56.4,5.6,8.6,11.8,18,21.7,21.8,9.9,4.3,25.1,2.1,30.6-7.8,3.7-5.7,1.9-18.7-5.3-10.4-5.1,5.6-11.2,8-19.3,4.8-10.6-4-18.9-12.4-25.1-21.6-3.6-5.2-7.1-10.4-11-15.9-6.3-8.4-15.3-22.8-8.8-32,2.4-3.2,6.9-4,11.9-1.7,11.3,5.7,18.5,20.8,25.8,31.3,5.1,7.8,11.2,16.5,21.5,13.9,12.4-3.2,24.5-14.3,27.7-26.9,3.5-13.6-4-29-11.7-41.4-3.1-5.2-10.1-15-14.4-15.8-3.8-.3-3.1,5.5-1.4,11.3,1.2,3.8,3.2,8.1,5.5,12.2,4.7,8.7,12.2,17.3,10.7,27.3-1.9,8.6-10,3.8-13.6-.9-5.1-6.1-8.3-13.9-12-22.1-4.7-10.3-9.4-22.2-14.9-31.4-3.7-6.5-9.6-11.9-11.3-18.2-1.6-6.2,0-12.8,3.5-18.2,12.5-17.9,28.2-6.6,37.6,7.5,16.1,23.2,28.4,46.5,36.1,73.4,3.6,12.1,4.5,23.6,5.9,35.8,1.2,9.4,2.9,18,5.2,27.6,2.9,12,8.1,25.1,3.3,37.1-3.5,9.3-10.7,15.2-18.2,22.3-3.9,3.7-8.1,7.5-12.5,10.4-10.3,7-18.7,3.9-11.3-8.4,6.5-10.4,19.9-20.9,23-33.4,3.2-11.8.1-30.4-8.8-38.2-6.1-4.2-4.6,8.7-4.8,12.8,0,5,.2,10.2-1,15.1-1.5,6.4-5.1,12.1-10.1,17.2-10.4,10.5-26.5,17.8-41,12.2ZM2220.7,1873.7c-2.9,39-3.2,77.6-4.2,116.2,1.5,24.7-4.2,38.5-31.4,30.2-19.8-5.6-35.6-20.1-55.3-26.5-16.2-5.7-37.4-6.7-45-24.8-6.6-17.5-10.2-37.5-12.6-56.2-1.4-25.6.2-52,7.4-76.5,3.5-9.4,10-13.8,20.3-15,6.8-1,35.8-2,29.2,10.3-6.7,7.2-19.2,6.9-26.9,12.5-12.4,10.8,35.2,9.8,15.7,30.6-18.1,13.3-24.9,22.6-23.4,46.2.8,18.3,1.7,41.9,21.5,49.8,9,4,18.7,5.7,27.3,10.8,9.2,4.8,21.9,14.3,21.4-1-4.2-30-11.5-60.4-11-91-1.7-21.4,3.7-42.3,4.7-63.5.9-24.3-24.4-22.8-41.9-21.4-19.8,1.2-40.7,9.7-49.1,28.5-9.1,21.9-9.1,47.8-10.1,71.5.2,22.6,5.7,38.4,9.4,60.5,4,36.2,19.2,31.6,49.1,35.8,13.2,1.9,32.7,11.2,6.8,13.5-9.4.7-19.1.4-28.5,1.1-9.3.4-17.5,1.6-25.7-1.7-16.4-6.9-15.4-27-19.7-42.3-2-9.7-3.9-19.3-5.2-27.7-1.4-13.4-5.3-26.1-6.4-39.4-.9-12.3,2-25.7,2.2-38.5.2-31.9.8-48.5,30.3-66.4,21.3-16.5,42.5-14.2,67.6-14.6,21-1,43.2-2.4,62.5,7.1,5.3,2.6,17.7,11.4,10.6,15.1h0c-6.2.5-12.7-5.1-19.1-7.3-13.7-4.7-7.5,28.5-8.7,36.3.2,18.9-3.1,40.3-3.7,59.7.5,32.8-1,65.2,6.3,97.5,4.6,17.3,11.6,15.6,10.6-1.8-1.3-17.7-4.2-34.6-4.6-52.7-1.4-25.8.7-50.3,2.9-75.9.5-8.2-.3-17.7,2.5-25.4,4.1-10.1,14.5-4.8,18.8,3.2,5.8,9.8,5.8,21.8,5.5,33ZM2132.3,1929.7c6.6,4.8,13,11.8,16.1,19.3,2.2,5.4,4.1,14.5-3,16.3-5.5,1.2-15.4-5.7-21.4-11.4-6.9-6.5-15.1-15.1-14.7-25.1h0c2-11.3,16.1-4.1,23,.9Z"/>
    <path class="st2" d="M1681.1,1367.4c.5,1.1,1.5,1.9,2.8,1.9h.2c2,0,3-1.5,3.2-3.2,0,.2,0,.4-.1.6-1.1,3.6-4.7,3-6.1.7Z"/>
    <path class="st2" d="M1385.4,1854c0,13.4.2,26.8.5,40.2-.2-13.4-.4-26.8-.5-40.2Z"/>
    <path class="st2" d="M1684.1,1361.6s0,0,0,0c0,0,0,0,.1,0,0,0,0,0,0,0Z"/>
    <path class="st2" d="M1686.8,1363.5c-.5-1-1.3-1.7-2.4-1.9,1,.2,1.8.9,2.4,1.9Z"/>
    <path class="st2" d="M1124.1,1371.6c0,.5-.2.9-.4,1.2.7-1,.6-2.4,0-3.9.3.9.5,1.8.4,2.7Z"/>
    <path class="st2" d="M1097.3,1375.5c1.4,1.5,3.2,2.8,4.9,3.2-.5-.2-1.1-.4-1.5-.7-1-.6-2.2-1.5-3.3-2.6Z"/>
    <path class="st2" d="M1115.9,1369.5c-.1-.2-.2-.3-.3-.5,0,.2.2.3.3.5Z"/>
    <path class="st2" d="M1115.1,1363.5c-.5.6-.7,1.5-.5,2.7-.1-1.1,0-2.1.5-2.7Z"/>
    <path class="st2" d="M1122,1365.9c-.5-.6-.9-1.1-1.3-1.4.5.4.9.9,1.3,1.4Z"/>
    <path class="st2" d="M1386.7,834.9c3.7.4,7.9.5,12.1.3-4.8.1-9.3-.1-12.1-.3Z"/>
    <path class="st2" d="M1417.9,824c-1.6-1.6-3.9-3.1-6.3-3.9h-.2c-2.1-.9-4.5-1.4-6.9-1.6,3.4.3,6.7,1.2,9.7,2.8,1.3.7,2.6,1.6,3.7,2.7Z"/>
    <path class="st2" d="M1416.9,831.8c1.1-.6,1.9-1.3,2.3-2-.6.8-1.4,1.4-2.3,2Z"/>
    <path class="st2" d="M1377.2,829.1c.3-.5.7-1,1.2-1.5-1.4,1.4-2.2,2.9-1.7,4.1-.3-.7-.2-1.5.5-2.6Z"/>
    <path class="st2" d="M1385.9,822.5c-1.1.5-2.6,1.4-4.2,2.5,2.3-1.5,5.2-3,8.2-4.2-1.4.5-2.7,1.1-4,1.7Z"/>
    <path class="st2" d="M1386.4,834.9c-.5,0-1.1-.1-1.8-.2.6,0,1.2.1,1.8.2Z"/>
    <path class="st2" d="M1104.1,1378c-.1.6-.4.9-.9.9.1,0,.2,0,.3,0h0c1.5-1.3-.5-4.3-3-6.7,2,2.1,3.7,4.6,3.4,5.8Z"/>
    <path class="st2" d="M1300,1813c.2,8.5.3,17,.4,25.5,0-.5,0-1.1,0-1.6,0-8-.2-15.9-.3-23.9Z"/>
    <path class="st2" d="M1300.7,1914.8c0,0,0-.1,0-.2,0,3.2,0,6.3-.1,9.5,0,.6,0,1.3,0,2,.1-3.8.2-7.6,0-11.2Z"/>
    <path class="st2" d="M1342.3,1976.5c1,0,1.9,0,2.9,0,4.1,0,8.6.3,13.1.5-.3,0-.6,0-.9,0-4.6-.6-9.8-.5-15-.5Z"/>
    <path class="st2" d="M1375.2,1975.6c1.5-.5,3-1.1,4.4-1.9h.1c1.6-1.6,2.9-3.4,3.9-5.5-1.7,3.4-4.4,5.9-8.4,7.5Z"/>
    <path class="st2" d="M1311.5,1972.6c1.1.5,2.3.9,3.5,1.3-2.8-1-5.4-2.5-7.7-4.5,1.2,1.2,2.6,2.3,4.2,3.2Z"/>
    <path class="st2" d="M1386.2,1941.4c.3,6.8.4,12.9-.2,18,1.1-7.6.6-16.6.2-24.9,0,2.3,0,4.6,0,6.9Z"/>
    <path class="st2" d="M1300.5,1869.3c0,7.6.1,15.2.2,22.9,0-10.4-.1-20.8-.2-31.2,0,2.8,0,5.5,0,8.3Z"/>
    <path class="st2" d="M1386.3,1918.7c0-.3,0-.6,0-.9,0,.4,0,.7,0,1.1,0,0,0-.1,0-.2Z"/>
    <path class="st2" d="M1304.3,1965.4c-2.6-5.8-3.6-12.2-3.9-18.8,0,6.9.9,13.5,3.9,18.8Z"/>
    <path class="st2" d="M1118.2,1362.9c.7.3,1.4.7,2.3,1.4-.8-.7-1.6-1.1-2.3-1.4Z"/>
    <path class="st2" d="M1301.7,1780.9c-2.9,5-2.4,12.7-1.9,19.9,0-1.2,0-2.4,0-3.6-.2-5.8-.3-12,1.9-16.3Z"/>
    <path class="st2" d="M1358.8,1774.6c-.2,0-.4,0-.6,0,.1,0,.3,0,.4,0,0,0,.2,0,.2,0Z"/>
    <path class="st2" d="M1341.5,1774.4c-7.4,0-15.1,0-22.4.4,7.3-.3,14.9-.4,22.4-.4Z"/>
    <path class="st2" d="M1382.4,1783c-1.1-2-2.5-3.7-4.4-4.9-1.2-.8-2.7-1.4-4.2-1.8,3.8,1.4,6.6,3.5,8.6,6.7Z"/>
    <path class="st2" d="M1385.3,1814.1c.3-6.2.5-12.9,0-18.9,0,1.4,0,2.9-.1,4.5,0,4.8,0,9.6,0,14.4Z"/>
    <path class="st2" d="M1094.1,1370.7c0-.4-.1-.7-.1-1.1,0,.3,0,.7.1,1.1Z"/>
    <path class="st2" d="M807.6,1928.9c-1.3.8-2.7.1-3.4-1,.8,1.2,2.2,1.9,3.5,1h.1c1.2-1.1,1.2-2.6.5-3.8.7,1.2.7,2.9-.7,3.8Z"/>
    <path class="st2" d="M1222.5,2081.1c.5-1.1,0-2.5-.8-3.4.8.9,1.3,2.3.8,3.4Z"/>
    <path class="st0" d="M1691.5,1813.8c-18.5-13.6-35-29.6-52.9-44.2-17.5-14.2-36.4-26.6-53.4-41.3-10.7-8.8-22.3-19.3-33-27.9-9.6-7.4-17.8-12.6-28.1-20.6-11.8-10-23.9-20.9-36-30.3-12.6-9.3-24.7-16.1-36.8-26.6-11.5-9.8-24.8-19.7-36.6-28-14.5-10.5-24-14.4-39-1.2-12.4,10.7-25.2,19.9-38.4,29.6-11.2,8.7-22,18.1-32.6,27.6-10.6,8.4-21.4,15.7-31.7,24.4-6.5,5.9-14.9,12.7-21.8,18.8-9.5,8.6-18.4,17.4-28.2,25.9-10.8,9.4-23.2,16.8-34.2,25.6-12.8,10.7-24.8,22.9-38.2,32.7-13.4,9.5-25.4,19.7-37.8,30.4-12.3,11.1-26.9,22.5-28.7,40.2-1.8,23.1.2,46.2,1.9,69.1.6,11.2.6,22.3,1.2,33.6.8,17.5,1.4,35.3,1.7,52.8.7,26.1,19.5,22.7,39.2,20.5,19.3-2.3,40.1-1.8,59.8-3.5,13.4-1.1,26.6-2.9,40-3.6,16.5-1,35.1-.3,51.1-2,8.9-.9,16.9-2.8,25.9-4,20.5-2.4,42.6-1.8,63.4-2.5,40.2-.6,80.7-.2,120.6,1,20.7.2,41,2.6,61.6,4.4,16.5,1.1,33.4,1.3,49.8,2.6,23.6,2.1,47.1,3.1,70.7,5,9.7.7,21.9,3.7,30.6-.4,9.6-5,9.5-18.1,9.7-28,.1-7.8,0-15.5.1-23.2.3-20.7,0-41.2.8-61.9.7-13.5,1.4-26.7,1.5-40.3v-.2c.4-24.5-1.5-39.4-22.1-54.5ZM1386,1959.4c-.4,3.3-1.2,6.2-2.4,8.7-1,2.1-2.2,4-3.9,5.5h-.1c-1.4.9-2.9,1.5-4.4,2-4.1,1.6-9.6,2.1-16.9,1.4-4.5-.2-9-.6-13.1-.5-.9,0-1.9,0-2.9,0-9.4.2-19.2.4-27.3-2.6-1.2-.4-2.4-.8-3.5-1.3-1.6-.9-3-2-4.2-3.2-.8-.7-1.5-1.4-2.2-2.1-.3-.6-.6-1.3-.9-1.9-3.1-5.3-3.9-11.9-3.9-18.8-.3-6.8.1-13.7.4-20.5,0-.7,0-1.3,0-2,0-3.2,0-6.3.1-9.5,0-7.5,0-15,0-22.5,0-7.6-.1-15.3-.2-22.9,0-2.8,0-5.5,0-8.3,0-7.5,0-15-.1-22.5,0-8.5-.2-17-.4-25.5,0-4.1-.2-8.1-.2-12.3-.5-7.2-1.1-14.8,1.9-19.9,1.8-3.5,5.2-5.8,11.5-5.8,2-.1,4-.2,6.1-.3,7.3-.4,14.9-.4,22.4-.4,5.8,0,11.4.1,16.6.2.2,0,.4,0,.6,0,6-.2,11,.3,15,1.7,1.5.5,3,1.1,4.2,1.8,1.9,1.1,3.3,2.8,4.4,4.9,1.9,3.1,2.9,7.1,3,12.2.5,6,.2,12.7,0,18.9,0,5.2,0,10.5,0,15.7,0,0,0,0,0,0,0,.3,0,.6,0,.8,0,7.8,0,15.6,0,23.4,0,13.4.3,26.8.5,40.2,0,2.4.1,4.7.2,7.1v.2c.2,5.4.2,10.8.2,16.2,0,.3,0,.6,0,.9,0,0,0,.1,0,.2,0,5.2,0,10.4,0,15.6.4,8.3.9,17.3-.2,24.9ZM1487.1,1908.6c-.1,3.9-.3,7.9-.4,11.8,0,6.5-.2,13.3-.3,20,0,6.5,0,12.1-.6,16.8-.2,7.2-2.6,11.9-6.4,15-.1,0-.2.2-.4.3,0,0,0,0,0,0-4.8,3.9-12.7,5.5-25.6,4.6-2.6-.1-5.3-.2-8.1-.2-1.8,0-3.7,0-5.6,0-9,0-18.1,0-26.5-2-.3,0-.5-.1-.8-.2-.3,0-.6-.2-1-.3-.5-.1-1-.3-1.5-.4-4.1-1-6.6-3.2-8.3-6,0,0,0,0,0-.1-.1-.2-.2-.4-.3-.6,0-.1-.1-.3-.2-.4,0-.1-.1-.2-.1-.3,0-.2-.2-.4-.3-.7,0,0,0,0,0,0-1-2.5-1.4-5.4-1.6-8.4,0,0,0,0,0,0,0-.1,0-.3,0-.4,0-1.9,0-3.9,0-5.8-.2-38.5-.7-92.2-.9-130.6,0-2.5,0-5,0-7.5,0-1.9-.1-3.7-.2-5.4-.8-9.7-.3-16.7,1.3-21.7,1.2-4.3,3.5-7.5,7.3-9.6.4-.2.8-.4,1.3-.7,1.6-.8,3.4-1.3,5.4-1.7.5-.1,1-.2,1.5-.3.1,0,.2,0,.3,0,.3,0,.5,0,.8-.1,3.4-.5,7.4-.6,12.2-.4,2.1,0,4.2.1,6.4.2,6.6,0,13.4-.2,20,0,12.1,0,19.9,2.4,24.7,7.2,4.5,4,7.3,10.3,7.3,19.8.4,4.5.4,9.5.2,15.1,0,.5,0,.9-.1,1.4-.3,5.4-.8,10.8-1.2,16.2-.2,5.4-.2,10.9,0,16.3.5,6.1,1,12.3,1.4,18.5.1,1.2.3,2.3.4,3.5.3,6,.4,11.9.4,17.8,0,6.5,0,12.9-.4,19.3Z"/>
    <path class="st1" d="M2026.5,2071.9c0-9.4-1.7-19.7-4.5-28.9-5.2-20.7-8-41.6-11.4-62.4-6.3-36.3-11.6-73.2-12.3-110.1-3.2-20.8,6.1-43.8-4.9-63-7.2-13.1-21.6-18.4-31.6-28.6-13.9-13.8-24.4-31.6-34.7-48.3-11-14.9-21.1-30.5-27.6-48.2-4.9-9.7-5.3-27-14.6-32.7-13,1.9-9.2,43.5-10.7,53.7-1.5,17.8,5.4,34.9,11.4,51.6,3.7,14,19.8,43.5,3.4,53-7.7,3.7-19.1,2.5-23.6,10.9-4.1,9.9-3.1,21.5-5.9,31.8-3.6,16.7-2.3,34.4-2.8,51.4-.7,11.6-2.8,23.2-4.6,34.7-2.1,17.5-1.9,38.9-3.2,55.8-12.2,53.2,25.3,51.3,63.4,64.2,6.6,2.1,26,14.7,5.4,13.5-11.7-.5-24.6-.9-36.3-.6-81-4.4-162.8-1-244.2-.9-16,0-32.1-.5-47.9-.1-15.2.6-31,1.3-45.3-2.8-12.2-2.3-23.8,3-36.6,3.4-11,0-21.8-.8-32.7-.4-14.6-.2-30.6,3.1-45,3.3-7.6-.2-15.3-1.4-23.5-2.1-35.4-1.4-72,1.1-107.2,1.5-29.6-.8-60.2-2-89.6-1.2-24.9.4-50.7,1.6-75.5,2.9-16-1.8-32.1-3.2-48.7-2.2-39.6,1.9-79.7-.1-119.4.6-16.1.6-33,.7-49.2.6-12.9,0-26.5,3.5-38.7.3-13.4-7.5,16.2-14.1,21.8-15.8,57.5-13.7,53.9-17.8,48.4-72.6-1.2-19.7-4.5-39.5-5.8-59.2-1.2-17.7-.4-35-2.9-52.6-3.3-16.3-.9-37.3-13.5-49.8-5.5-4.9-15.7-5.8-20.6-10.9-6.9-7.8-2.8-19.4-.2-29,6-20.1,15.4-40.6,15.1-61.7-1.5-17.3,0-35.3-1.8-53.1-7.7-32.7-15.5-1.8-19.6,12.8-5.5,19.4-17.1,37.1-26.5,54.9-7.7,12.8-10.7,28.5-20.7,39.3-14.2,16.6-36.1,26.2-45.6,46.9-7.5,18.7-2.8,39.4-3.9,58.9.4,27.7-7.4,53.5-8.2,81-5.4,34.8-14.5,68.5-17.5,103.5-1.2,8.8-2.3,17.9-1.8,27.1,0,1.3,0,2.5.1,3.6h428.5c0-.2-.1-.3-.2-.5,0,0,0,0,0-.1,0,0,0-.1,0-.2-.1-.7,0-1.4.4-2,0-.1.2-.2.3-.4.5-.6,1.1-1,2-.9h.2c1.9.2,2.7,1.4,2.9,2.6,0,.5,0,1-.1,1.5h9.4c.3-.4.7-.7,1.2-1,.9-.6,1.9-1,2.8-.9h.1c.2.2.4.3.5.5,0,0,0,0,0,0,0,0,0,0,0,.1,0,0,0,0,0,.1,0,.2,0,.5-.2.7,0,0,0,0,0,0,0,0,0,0,0,.1,0,0,0,.1-.1.2h789.5c8.1-4.7,13.7-12.2,14.5-24.1ZM1871.6,1966.1c0,.4-.3.8-.8,1.1,0,0,0,0,0,0,0,0-.1,0-.2,0-.8.4-1.9.3-3-.4h-.2c-1.1-1.1-1.5-2-1.3-2.6,0-.3.2-.6.4-.8h.1c.6-.6,1.4-.6,2.2-.3.5.1,1.1.4,1.6.9,1,.7,1.3,1.5,1.2,2.1ZM1879.5,1913.7c0,.4-.3.9-1.1,1.3h-.2c-.6.4-1.6.5-2.6.4,0,0-.1,0-.2,0,0,0,0,0-.1,0-.3,0-.6-.1-.9-.2,0,0,0,0,0,0,0,0-.2,0-.3-.1-.5-.3-.9-.7-1-1.2,0,0,0,0,0-.2,0,0,0-.1,0-.2,0-.1,0-.3.1-.4.1-.2.3-.3.5-.5,1.3-1.1,3.9-1.1,5.1,0h.1c.4.4.6.8.5,1.3ZM881.1,2043.7c0,.5-.2,1.1-.6,1.7v.2c-1.1,1.5-3.4,2.7-4.8,1.2,0,0,0-.1-.1-.2-.3-.5-.4-1.1-.2-1.8.3-1.2,1.2-2.3,2.2-2.9,0,0,0,0,0,0,0,0,0,0,0,0,.7-.4,1.4-.6,2.1-.3h.2c.9.4,1.2,1.2,1.1,2ZM875.3,1926.9c0-.4.3-.9.5-1.3,0,0,0,0,0,0,0,0,0-.1.1-.2.3-.4.7-.7,1.1-.9,0,0,0,0,.1,0,0,0,.2,0,.3-.1.7-.3,1.5-.4,2.2,0h.2c1.5.8,1.5,2.3.7,3.4-.7,1.2-2.2,2.1-3.8,1.6h-.2c-1.2-.5-1.5-1.4-1.4-2.4ZM807.8,1928.8h-.1c-1.3,1.1-2.8.3-3.5-.9,0,0,0,0,0-.1,0,0,0-.2-.1-.2,0,0,0-.2-.1-.3,0,0,0,0,0,0-.4-1.1-.3-2.3.7-3.1h.1c1.4-1.1,2.9-.3,3.6,1,.7,1.1.8,2.7-.5,3.7ZM1222.5,2081.1c0,0,0,.2-.1.2-1.3,1.8-4,.3-5.1-1.2v-.2c-1.3-1.7-.9-2.9.1-3.4,1.1-.5,2.8-.3,4.1,1.1,0,0,0,0,0,0,0,0,0,0,.1.1.8.9,1.3,2.3.8,3.4ZM1659.7,2095.4h-.1c-1.2.6-2.4-.2-3.1-1.3,0,0,0,0,0,0,0-.1-.1-.2-.2-.4,0,0,0-.2-.1-.3,0,0,0,0,0-.1-.5-1.2-.5-2.5.4-3.2h.1c1.3-.7,2.6.2,3.3,1.4,0,0,0,0,0,.1,0,0,0,.1,0,.2.6,1.2.7,2.7-.4,3.5ZM1939.5,2062.3c0,0,0,.1-.1.2,0,0,0,0-.1.1,0,0-.2.1-.3.2,0,0,0,0,0,0-.1,0-.3.1-.4.1,0,0,0,0,0,0-.1,0-.3,0-.5,0,0,0,0,0,0,0-.1,0-.2,0-.4,0,0,0-.2,0-.3,0,0,0-.1,0-.2,0-.2,0-.3,0-.5,0,0,0,0,0,0,0-.7,0-1.4-.1-2-.3,0,0,0,0,0,0-.2,0-.4,0-.5-.1-.8-.2-1.4-.6-1.7-1-.8-.8,0-1.6,1-1.8,0,0,.1,0,.2,0,1.9-.5,5,0,6.2,1.4h0c.1.4,0,.7,0,1ZM1959.7,2026.8h-.1c-1.3.9-2.8.1-3.6-1.1-.8-1.2-1-2.8.2-3.7h.1c1.2-.9,2.5-.4,3.3.5,0,0,0,0,0,0,0,0,0,.1.1.2,1,1.2,1.3,3,0,4ZM1987.5,1891.4c0,.1,0,.2,0,.4-.4,1.5-1.5,2.7-3,1.9h-.1c-1.1-.7-1.4-2.4-1.1-3.8,0-.1,0-.3.1-.4.4-1.5,1.4-2.6,2.9-1.8h.1c1.1.7,1.4,2.3,1.1,3.7Z"/>
    <path class="st0" d="M1896.9,1538.6c12.4,8.2,23.8-7.8,33-14.5,7.4-6.2,15.3-12,23.5-17.5,23.4-15,46.9-29.9,70.8-43.8,13.1-8.1,28.8-10.5,41.4-18.5,14.5-12.7,10.6-36.3,6.2-53.2-5.5-21.1-12.3-41.5-19.9-61.8-7-19.3-14.9-36.9-25.6-54.4-10.9-19.5-22.2-36.5-37.3-53.5-9.5-10.5-19.6-21.9-30.5-31.2-8.8-7.3-17.5-12.8-27.1-19.6-14.2-11.2-29.9-18.9-46.4-26-17.6-8.9-36.8-15.5-54.9-22.8-12.2-4.2-34.1-16.8-45.8-13.8-12.1,3.8-11.3,21.8-13.5,32.4-2.6,15.8-3.9,32.1-7,47.8-2.6,14.6-4.9,30.4-.6,45.1,3.3,10.9,9.6,21.1,13.9,31.8,5.4,14.9,5.9,33.2-2.8,46.8v.2c-4.9,7.4-13.4,12.5-18.4,18.6-11,13-.1,34,.8,49.2,2,11.6,5.3,22.2,6.4,34.9,1.5,16.2,5,32,9.2,47.2,6.8,27.1,10.5,56,17.9,83.2,1.9,5.3,5.4,41.9,13.3,30.6,7.3-14.2,9.8-32.2,12.6-48.1,2.9-16.2,5.7-31.5,9.2-47.3,4.3-22.2,11.4-44.5,16.1-66.5,4.8-27.9,11.4-56.4,18-84.1,1.9-8.2,3.3-21.5,7.2-27.4,2.9-2.6,2.3,11.9,2.5,14.9-.2,12.7-.5,25.7-1,38.5-1,20.9-1,41.2-.9,61.9,1.2,32.8,3.3,66.6,16.3,97.2,3.4,8,7.8,19.4,13.4,23.6Z"/>
    <path class="st0" d="M1125.3,1110.3c1.7,14.1,3.4,30.9,5.4,45.5,1.9,12.3,3.8,24.1,5.5,36.5,1.4,9.5,0,20.2,5.9,28,1.5,2,3.3,3.9,5.2,6,5.6,6.3,11.5,13.6,13.8,21.6,1.4,4.8,2.1,9.9,3.1,14.8,1.1,6,2.5,11.5,3.6,18.6,1.4,9.8,4.1,20.3,3.5,30.1-.4,5.1-2.1,9.4-3.4,12.8-1,2.8-1.8,4.5-1.6,6.4.2,3.8,11.5,3.6,15.9,4,17.1.2,35.1-.6,52.2-.8,17.2-.4,34.4-1.3,51.8-1.7,22.8-.3,45.7-.6,68.6-1.2,19.3-.1,38.5-.4,57.9-.7,11.6,0,23,.8,34.5.6,9.9,0,20.3-1.2,30.7-1.7,43-1.8,85.5-1.7,128.5-3.3,6.4-.3,13.9-.6,19.1-1.7,1.4-.3,2.7-.7,3.8-1.1,1.3-.5,2.1-1,2.4-1.5.3-.6,0-1-.8-1.6-2.2-1.6-7.9-3.2-11.2-6.7-6.1-6.7-4.5-18.4-4-27.1,1-10,2.2-19.9,3.5-29.6,1.1-8.3,3.3-16.9,8.1-23.1,4-5.3,9.9-8.9,14.1-14,5.6-6.5,6.7-16.2,7.5-24.9.8-9.3,2-18.6,3.4-27.6,3.7-22.8,7.2-45.2,8.9-68.1,1.5-20,5.3-40.6-15.6-51.4-8-4.2-19.1-8.6-27.3-8.4-7.5.3-13,5.5-16.5,12-5,9.2-7.5,19.7-11.2,29.2-2.8,8.4-4.8,17-9.8,24.6-6.3,9.8-14.8,19.8-23,28.5-8,8.9-16,17.4-26,24.1-11.8,8.3-24.5,15.2-36,24-12.3,8.8-26.1,16.5-38.9,24.8-7.6,4.9-15.3,9.8-23.2,14.1-34,18.8-51.5,18.8-85.6.5-12.1-6.4-23.2-14-34.9-20.7-12.2-6.7-24.8-13-36.3-21.3-16-11.9-33.2-21.4-47.7-35.1-12.8-12.7-22.4-28.2-30.8-44.1-5.8-11.3-9.9-23.2-13.5-35.4-3-9.1-5.7-22-14.8-25.6-5.3-1.6-10.4.4-15.8,2.3-11.4,3.9-24.6,4.9-29.4,18.3v.2c-3.8,9.5-2.7,20.6-1.9,30.9.5,6.8,1.2,13.4,1.9,20.1Z"/>
    <path class="st0" d="M986.5,1598.7c8.2,12.8,9.8-25.2,11.6-29.8,9.3-40.3,13.9-77.5,20.8-117.1,2.8-17.6,5.2-36.6,8.2-54.4,2-14.7,6.6-28.4,5.2-43.1-2.1-17.3-18.6-25.7-25.9-41-18.6-39.3,12.3-48.8,11.9-81.8-5.1-27.9-6.3-57.3-11-85.4-2.9-33.2-15.3-41.2-45.3-25.2-26,12.1-53.7,21.7-78.6,36.3-31.3,17.9-59.7,40.5-83.5,67.6-21.7,27-36,57.5-50.5,88.5-16.2,35.4-29.4,72.6-32.6,111.7v.2c-8.1,32.3,21.5,35.1,43.8,46.3,19.8,8,38,19.5,56.7,29.9,16.4,8.9,32.8,18.9,47.3,30.6,8,5.9,17.1,15.9,25.6,15.8,12.6-3.9,17.5-31.8,24.1-43.1,10.9-21.4,6-46,7.1-69.6-.1-40.4-.8-81.9-4.7-122.1,3.1-25.5,10.7,17.6,11.5,23.9,2.6,12.5,6.7,24.7,9.8,37.1,8.8,40.3,16.1,82.2,26.2,121.9,7.2,34.1,10.9,70,22.3,102.9Z"/>
    <path class="st1" d="M1835,1776.6c-3.7-3.5-9-6.9-14.1-10.9-11-8.6-21.2-19.3-32.2-27.9-11.3-8.5-21.6-15.8-31.3-25-4.9-5.7-10-11.2-16.2-15.5-7.3-6-16.6-11.3-24-17.6-18.7-16.1-37.8-36.1-57.2-51.2-3.8-2.7-8-6.6-11.3-8.8-3.3-2.1-6.1-4.6-8.8-7-2.4-2.3-6.3-5.2-9.5-7.3-4.8-3.4-10.6-8.5-15.9-12.3-9.9-8.1-19.3-17.3-29.4-25.7-8.3-7.3-17.4-16.1-25.9-22.6-8.9-7.3-16.5-11.1-26.5-19-9.8-8-19.7-17-29.4-25.3-12-10.3-23.5-19.8-35.9-29-9.8-7.2-16.9-13.9-26.4-21.5-7.3-5.9-14.9-12.2-22.4-18.5-13.2-10.9-22.9-17.5-37.5-7.1-6.6,4.1-12,9.4-17.7,14.1-4.5,4.7-8.5,9.5-13.7,13.4-1.7,1.2-3,2.8-4.3,4.4-3.3,3.8-6.2,6.2-10.4,9.1-5.4,3.9-11.5,8.2-17.2,12.5-10.1,8.4-19.9,18.3-29.4,26.2-15.3,12.1-31.9,24.7-45.6,37.7-18.2,15.8-37.8,31.9-56.2,46.9-4.6,3.4-8.3,7.6-12.7,11.4-7.9,6.2-15,12.6-23.2,19.1-16.4,13.3-32.5,31.1-49.6,43.1-4.1,3.1-8.1,6.5-11.9,9.9-2.1,2.7-4.3,5.2-6.7,7.5-4.9,4.5-11.7,8.5-17.8,12.5-8.9,6-15.3,13.5-23.7,21.6-7.1,6.7-15.5,14.7-22.3,20.8h-.1c-6.6,5-12.1,10.8-18,16-3,2-5.9,4.2-8.3,7-4,4-9.4,5.8-12.9,10.3-3.1,3.8-6.4,5.8-10.7,9.6-2.5,2.2-5,4.8-7.3,7-2.2,2.3-3.9,4-4.8,6-2.3,8.1,25,4.8,29.5,4.5,7-.7,12.8-1.9,18.8-4.5,5.3-2.5,10.2-6.1,14.6-9.3,4-2.8,7.7-5.5,10.9-9,6-5.6,11.7-10.3,18.4-15.6,6.9-4.7,14.8-9.9,21.4-15.6,19.5-15.6,35.9-30.6,56.1-45.6,15.4-12.1,29.8-25.5,44.9-37.1,7.9-6.1,16.5-11.9,24.6-18.5,9-8,18.7-16.4,27.6-24.1,11-9.7,21.9-16.4,33.3-25.5,12.7-10.1,25.5-22.3,37.8-32.6,16.4-13.7,32.2-25.1,49-38.9,8.7-7.9,18.6-14.9,27.2-22.8,10.6-9.9,23.8-18.6,38.3-11.8,5.1,2.1,8.2,7,12.1,10.9,3.7,3.8,8.2,6.8,12.3,10.3,4.4,3.6,9.9,7.2,14.9,11,12.7,9.7,24.5,21.4,37.1,31.2,7.3,5.7,14.7,10.4,21.6,15.9,12.1,10.1,24.5,20,36.9,30.2,10.5,9.3,22.3,20.8,33.7,28.8,20.8,15.1,40.4,31.1,60.4,47.1,8.4,5.9,15.6,9.8,23,15.6,5.6,4.6,11.6,11.4,18.2,15.9,10.2,7.3,21.2,16.9,31.1,25.3,13.5,9.5,24.9,19.2,37.7,29.6,7.9,6.3,17.5,12,25.2,18.9,12.1,10.8,27.8,15.7,44,15.4,9.7.2,32-1.3,17.9-13.5Z"/>
    <path class="st0" d="M1210,800v.2c3.6,9.5,7.9,17.7,12.7,27,6.6,13.1,14.1,26.6,21.4,39.1,5.5,9.1,10.7,20.3,16.3,28.7,5,7,11.6,10.4,19.3,3.8,6.7-5.7,13.9-13.8,21.2-19.8,11.2-9.8,24.4-16.8,38.1-22.1,17.2-6.8,31.9-6.8,49.9-5.5,11.2.8,22.4-.6,33.4-1.1,31.2-.8,63.4,10.9,82.1,37,7,9.5,15.4,14.8,24.4,3.8,8-10.6,13.6-22.2,20.5-34.2,7-12.8,13.2-24.6,18.4-37.6,5.2-13,9.1-27.2,11.8-40.9,3.1-15.6,6.3-30,6.3-45.4-.2-7.9-3.7-15.8-8.3-4.2-1.2,2.9-2.2,6.9-3.1,11-2.1,10.7-4,22.1-11.5,30.2-11.2,12.7-35.2,10.9-51.3,11.8-18.2.7-36.2,1.4-53.5-4.3-11.4-3.9-22.1-10.3-30.5-19.4-5.7-5.8-10.8-12.7-17-17.9-21.2-18.7-35.9,2.2-50,17.3-16.5,18.5-40.7,27.3-65.1,27.4-10.8,0-23.2.1-34.3.2-10,0-19.8-.2-28.4-5.6-12.2-7-20.7-21.9-23.4-35.9-1.9-8.4-2.7-18.5-4.8-26.1-2.3-8.2-5.9-6.1-7.9-.4-1.5,4.1-2.2,9.1-2.3,13.5-.4,14.6,4.2,29.1,7.8,43.5,2.3,8.6,4.7,17.3,7.7,25.6ZM1378.3,827.6s.1,0,.2-.1c.1-.1.3-.3.5-.4.6-.5,1.3-1.1,2.1-1.7,0,0,0,0,0,0,.2-.1.4-.3.6-.4,1.6-1.1,3.1-1.9,4.2-2.5,1.2-.6,2.6-1.2,4-1.7.5-.2.9-.3,1.4-.5,2.4-.9,4.9-1.5,7-1.6,0,0,.1,0,.2,0,.1,0,.2,0,.3,0,1.4-.2,2.9-.3,4.3-.2.4,0,.8,0,1.2,0,0,0,.1,0,.2,0,2.4.2,4.7.6,6.9,1.5h.2c2.4.9,4.7,2.3,6.3,4,1.4,1.5,2.4,3.2,1.8,5.1h0c-.1.3-.3.6-.4.8-.5.7-1.2,1.4-2.3,2-4.1,2.4-11.4,3.2-18.1,3.4-4.2.1-8.4,0-12.1-.3,0,0,0,0-.1,0,0,0,0,0-.1,0-.6,0-1.2-.1-1.8-.2-3-.3-7.2-.9-8-2.9-.6-1.2.2-2.7,1.7-4.1Z"/>
    <path class="st0" d="M1303.2,1086c-4.7-2.5-9.1-3.9-14.5-7-4.3-2.6-9-6.1-13.3-9.2-13.3-9.6-24.8-19.1-35-32.6-6.5-7.8-11.5-17.7-18.6-24.8-4.9-4.6-11.6-7.4-12.6.3h0c-1,8.3,1.5,17.4,3.1,26.1,2.2,12.8,5.9,25.5,11.9,37.1,5.1,10.1,10,19.2,17,27.6,8,10,18.4,17.8,28.1,26.3,12.8,11,26.6,22.5,40,32.1,8.5,6.3,15.6,13.1,23.9,19.7,10.2,8.1,21.2,14,31.9,21.9,10.1,6.7,21.2,17.7,34.2,14,8.2-2.5,14.1-9.2,21.2-14.1,19.8-14.1,38.8-30.8,58-46.1,26.6-21.6,55.6-41.3,73.7-71.6,11.5-19.3,21.2-45.3,19.7-67.6-2.4-21.7-25.3,12.4-31,17.7-11.2,12.5-22.3,23.8-34.9,34.5-18.1,14-38.1,25-59.8,31.4-10.4,3-21.6,4.6-32.1,6.4-4.9.7-10,1.9-14.4,2.5-6.1.6-12.9.5-19.4-.2-9.8-1-20.6-3.6-30.2-5.7-10-2.4-19.7-4.5-29-8.4-7.4-3.6-11.5-7-18.1-10.3Z"/>
    <path class="st0" d="M1320.6,420.3c1,7.1,3.5,15,6.2,22.9,7.1,20.7,14.2,42.1,20.1,63.2,2.7,9.2,4.4,18.9,6.9,28,4.7,16.4,22.7,13,36.9,13.7,8.8-.2,18.6.9,26.6-3.3,11.2-7.1,12.1-22.9,15.1-34.9,4.7-19.8,8.4-38.6,14.8-58,2.8-8.6,5.6-17.1,6.8-26.1,1.5-10.3,1.5-20.7,1.8-31.2.1-8,.5-15.7.7-23.5.2-10.3-.2-23.4-10.8-28.3h-.1c-8.4-3.5-19.8-2.3-29.2-2.3-11.7.3-25.6.5-35.9.8-7.2.2-14.9.3-22.6.5-8.5.2-17.6.6-25.2,4.3-16.1,7.9-12.7,28.8-13.1,43.6,0,10.6-.6,20.2.9,30.5Z"/>
    <path class="st0" d="M2196.5,1837.5c-2.8,7.7-2,17.1-2.5,25.4-2.2,25.6-4.3,50.1-2.9,75.9.3,18.1,3.2,35,4.6,52.7,1,17.4-6,19.1-10.6,1.8-7.4-32.3-5.9-64.7-6.3-97.5.6-19.4,3.9-40.8,3.7-59.7,1.3-7.8-5-41,8.7-36.3,6.3,2.1,12.8,7.8,19.1,7.3h0c7.1-3.7-5.3-12.5-10.6-15.1-19.2-9.5-41.4-8.2-62.5-7.1-25.1.4-46.3-1.9-67.6,14.6-29.5,17.9-30.1,34.5-30.3,66.4-.2,12.8-3.1,26.2-2.2,38.5,1.1,13.3,5,26,6.4,39.4,1.2,8.4,3.1,18.1,5.2,27.7,4.3,15.3,3.3,35.4,19.7,42.3,8.2,3.3,16.5,2.1,25.7,1.7,9.4-.6,19.2-.3,28.5-1.1,26-2.3,6.4-11.6-6.8-13.5-29.9-4.2-45.1.4-49.1-35.8-3.6-22.1-9.2-37.9-9.4-60.5,1-23.7,1.1-49.6,10.1-71.5,8.5-18.9,29.4-27.3,49.1-28.5,17.4-1.3,42.8-2.8,41.9,21.4-1,21.2-6.4,42.1-4.7,63.5-.5,30.5,6.8,61,11,91,.5,15.3-12.2,5.8-21.4,1-8.6-5.1-18.3-6.8-27.3-10.8-19.8-7.9-20.7-31.5-21.5-49.8-1.5-23.6,5.4-32.9,23.4-46.2,19.5-20.8-28.1-19.8-15.7-30.6,7.7-5.6,20.2-5.4,26.9-12.5,6.6-12.4-22.4-11.3-29.2-10.3-10.2,1.2-16.8,5.6-20.3,15-7.3,24.5-8.8,50.9-7.4,76.5,2.3,18.8,5.9,38.7,12.6,56.2,7.6,18,28.8,19,45,24.8,19.7,6.3,35.4,20.9,55.3,26.5,27.2,8.2,32.8-5.5,31.4-30.2,1-38.6,1.3-77.2,4.2-116.2.3-11.3.3-23.3-5.5-33-4.4-8-14.7-13.3-18.8-3.2Z"/>
    <path class="st0" d="M2061.7,1742.7c1.2-4.9,1.1-10.1,1-15.1.2-4.2-1.3-17,4.8-12.8,8.9,7.8,12,26.4,8.8,38.2-3.1,12.4-16.5,22.9-23,33.4-7.4,12.3,1,15.4,11.3,8.4,4.5-2.9,8.6-6.7,12.5-10.4,7.5-7.2,14.6-13.1,18.2-22.3,4.8-12-.3-25.1-3.3-37.1-2.3-9.7-3.9-18.2-5.2-27.6-1.4-12.2-2.4-23.7-5.9-35.8-7.7-27-20-50.2-36.1-73.4-9.4-14.2-25-25.4-37.6-7.5-3.4,5.4-5.1,12-3.5,18.2,1.7,6.3,7.6,11.7,11.3,18.2,5.5,9.2,10.2,21.1,14.9,31.4,3.7,8.2,6.8,16,12,22.1,3.6,4.7,11.7,9.5,13.6.9,1.5-10-6-18.5-10.7-27.3-2.4-4.1-4.3-8.4-5.5-12.2-1.7-5.8-2.5-11.6,1.4-11.3,4.3.7,11.3,10.5,14.4,15.8,7.7,12.3,15.2,27.8,11.7,41.4-3.2,12.6-15.3,23.7-27.7,26.9-10.3,2.6-16.4-6.1-21.5-13.9-7.4-10.5-14.5-25.6-25.8-31.3-4.9-2.3-9.4-1.5-11.9,1.7-6.5,9.2,2.5,23.6,8.8,32,4,5.6,7.5,10.7,11,15.9,6.2,9.3,14.5,17.6,25.1,21.6,8.2,3.2,14.2.8,19.3-4.8,7.2-8.2,9,4.7,5.3,10.4-5.6,9.8-20.7,12-30.6,7.8-9.9-3.8-16.2-13.2-21.7-21.8-12.1-18.3-26.3-37.3-38.2-56.4-4.2-6.8-8-13.6-11.3-20.8-3.2-6.6-6.4-14.6-13-17.8-6.5-2.9-12.3,3.2-13.5,9.7-.6,2.8-.4,5.7.3,8.8,2.9,12.3,10.4,23,17.3,33.4,5.6,8.8,11.7,16.3,17.7,25.3,3.3,5,6.4,10,9.5,15.1v.2c6.3,9.9,12.7,19.7,19.5,29.1,7.1,9.5,14.1,19.1,25.2,23.4,14.5,5.6,30.7-1.8,41-12.2,5-5.1,8.6-10.8,10.1-17.2Z"/>
    <path class="st0" d="M1272.3,633.4c56-1.6,120.9-3,176.5-4.2,12.3,0,26,.6,39.1.6,25.8-.2,51.1-.8,77.6-.9,9.2.2,20.2-1.3,27.7,1.9,4.8,2.1,7,7.5,8.3,9.9.6.8.9,2.3,2.1,1.8,1.4-.9,2.6-2.2,4.1-3.9,2.8-2.9,6.1-6,9.4-8.5,6.4-5,13.8-7.3,17.8-12.1,5.1-6.5-4-10.7-11.1-12.6-17.1-3.3-34.9-5.5-52.4-6.9-22-1.5-43.9-1.2-66-1-25.2,1.1-50.1,1.9-75.4,2.5-17.9.9-35.5,1-53.4.5-10.9-.2-22.3.7-33.1.8-11.8.4-23.4-.1-35,0-17.4.6-34.6.7-51.9,0-8.6-.2-17,.8-25.7,1-15,0-29.5,1.6-43.5,6.9-3.3,1.3-6.6,2.7-10,4-7.7,3-15.9,4.6-22.3,9.8-6.9,5.5-1.7,10,8,11.4,4.2.6,8.4.5,12.7.4,31.8-.8,64.8-.9,96.3-1.7h.2Z"/>
    <path class="st0" d="M1958.5,1569.8c18.4-11.6,37.8-21.4,57.9-29,13.6-5.5,27.9-9.3,42-12.8,8.7-2.3,17-5,26.1-6.9,5.7-1.5,11.8-2.5,17.7-3.2,8.5-1.3,21.5-2.1,21.3-13.3h0c-.7-9.6-8.3-18-16.9-21.6-6.6-2.6-14.7-2.8-23.2-2.6-7.4,0-14.7,0-21.9.7-6.7.5-13.1.9-19.3,2.4-10.5,2.4-21,6.4-31.7,9.7-20.4,6-38.5,15.7-57,26-16.3,9.1-31.2,18.5-45.3,31.1-7.1,6.4-12.5,13.8-13.8,23-2.2,11.5,1.5,34.7,16.8,26.7,6.4-3.2,13.4-9.1,19.6-13.3,8.7-6.2,18.5-11.3,27.7-16.9Z"/>
    <path class="st0" d="M883.9,1557.5c-15.2-12.8-32.6-23.3-50.5-32.2-13.8-6.7-27.8-13.3-42.4-18.2-20.1-7.1-40.3-13.3-61.7-14.4-12.9-.5-26.9-3.3-39.1,1.8h-.2c-9.6,4-19.7,16.5-15.5,26.1,3.9,7.9,16,9.4,24.3,10.7,5.1.8,10,1.6,15,2.7,22.8,5.2,45.4,11.8,67.6,19.1,13.4,4.4,25.4,9.7,37.8,16.1,12.4,6.2,24.6,12.7,35.9,20.5,8.1,5,21.8,21.2,31.4,17.6,6.4-3,8.7-10.9,9.7-17.5.7-5,1-9.6-.4-14.3-2.1-6.7-6.5-13-11.9-18Z"/>
    <path class="st0" d="M630.8,1848.8c4.7,2.5.9,9.7-.8,13.3-4,8.3-12.4,16.9-10.8,27,2.9,12.6,20,1.9,24-5.6,6.2-9.7,5.1-21.8,4.4-32.9-.3-6,0-11.9.7-17.9,2-16.5,5.7-32.9,7.8-49.6,1-9.6,5-24.5-.5-31.8-5.2-5.5-13.6-4.7-20.8-4.5-8.1.5-18.1,1.5-24.9,5.1-5,2.7-7.8,6.4-6.9,8.8h0c2.3,4.7,12,2,17.2.6,4.8-1,17.7-7.1,17.9,1.3,0,5.5-5.7,13.7-9.3,18.8-6.4,8.7-13.4,17.8-22.3,24.4-5.6,4.7-16.5,10.9-18.4,17.4-.1,3,3.6,3.2,8,1.4,8.1-3.3,14.6-10,21.4-16,5.4-4.7,10.2-8.2,13.4-7.6,3.1.7,4.2,4,4.5,7,.4,4.4-1.8,9.2-4.7,12.7-3.8,4.7-9.3,7.2-14.9,8.7-14.7,3.8-27.1,14.7-32.4,29.6-4,10.7-3.3,22.3-2.9,33.5.3,7.3.9,14.3,1.4,21.5,1.9,22.4,2.5,46.9,4.8,69.5,1.6,12.3,1.3,27.8,4.2,39.9,2.3,8.8,9.7,9.6,14.7,2,3.3-5.3,4.2-13,4.2-19.8-.3-20.1-2.3-39.5-3.6-59.1-1-19.4-2.7-38.9-2.4-58.6.3-11,3.9-20.5,10.7-28.6,3.8-4.4,10.5-11.8,16.4-10.6Z"/>
    <path class="st0" d="M854.6,1638.4c-7.6,1.9-12.7,14.9-16.2,22.6-4.5,10.4-9.8,20.6-15.4,30.5-16.6,29.8-21.8,57.2-61.8,60.3-38.7,4.1-51.2-16.4-73-44.9-8.1-12.1-15.9-23.7-27.8-31.6-7-4.3-18.6-9.7-26.3-5.2-4.9,3.1-5.3,9-1,12.1,8.5,6.4,31,5.3,22,22.7-10.1,18.5-42.7,18.1-48.3,29.1h0c-1.6,6.4,12.7,4.1,16.3,3.1,10.7-2.9,21.2-9.5,31.6-11.8,18-4.2,28.5,8.1,38.6,21,7.5,9.3,14.8,18.7,22.5,28,5.8,7,12.2,14,19.9,18.9,5,3.5,13.7,6.3,15.1,2.9.8-1.7.2-3.4-.3-5.3-.9-3.3-2.5-7.4-2.6-10.5-.4-7.2,13.5.6,17.8,1.4,5.1,1.6,10.5,2.1,15.8,1.1,12.3-2.2,21.5-12.1,29-21.6,6.2-7.7,9.9-13.1,13.9-20.9,4.1-8.2,7.1-17.1,11.4-26.1,7.1-15.9,16.3-34.7,22.5-50,2.4-6.4,4.2-13.9,2.4-20.6-.9-3.2-2.8-5.8-6.1-5.3Z"/>
    <path class="st0" d="M729.6,1879.5c-10.7-4.8-21.5-9.5-32.6-13.3-12.4-4.5-24.8-11-26.6-25.7-1.2-7.8-1.3-16.9,2.6-23.8,7.1-11,21.8-1.8,34,5.2,10.2,6.1,19.5,12.1,29.7,16.6,5.5,2.3,11.7,4.7,17.7,4.2,11-1.3,6.4-12.6,1.1-17.8h-.1c-13.4-14.1-34.7-16.1-51.8-24.2-4.9-2.2-9.4-5-14-7.7-4.4-2.6-9.6-5.8-14.1-6.5-8.3-.6-9.5,8-11.4,15.4-1.9,9.7-3.9,20-5.4,29.8-7.2,41.8,18.6,53.9,51.8,68.4,13.6,6.2,29.9,12.9,31.4,30.1,1,10.2-.6,21.1-1.8,31.3-2.1,14.3-4.3,29.6-7.2,42.8-1.4,8.4-7.3,20.5-1.4,27.4,1.3,1.3,3.1,1.9,4.8.9,7.4-5.4,8.7-19.5,10.7-28.5,4.2-20,8.6-39.6,11.1-60,1-8,1.9-16.2,2.1-24.4.4-8.5-.8-17.1-5.4-24.2-5.4-9-16.2-11.7-25.3-16Z"/>
    <path class="st0" d="M682.3,1901.1c-5.7-4.1-20.1-16.7-26.2-11.4-6.5,9.2-3.6,25.9-6.6,37.3-1.4,5.8-6.4,17.2-10.1,13.3-3.6-6.8-1-16.2-2.2-23.5-.9-8.1-6.4-12.6-12.6-5.1h0c-5.3,6.3-6.2,15.9-6.3,24-.2,10.8-.1,21.6.2,32.4.6,13.2.4,26.6,2.8,39.6,1.1,7.1,6,15.8,9.7,14.1,9.5-5.8,3.3-29.2,5-38.9.2-4.1,2.4-10.8,4.6-10.6,4.9.3,6.9,12,7.9,17.2,1.2,7.5,1.8,15.6,4.6,22.4.8,2.2,4.1,8.4,6,4.4,3.2-11.2.6-22.9,1-34.8.5-15.6-.4-31.7,3.9-46.7,1.1-3.8,6-13.6,10-9.3,2.5,4.5,1.2,11.7,1.1,20.1-.2,18.1-.8,34.9-1.9,52.6-.2,5.3,3.2,21.5,8.8,19.6,4.2-3.3,4.7-12.2,5.6-17.7,1-8.6,2.5-17.7,4.4-27.2,4.8-22.4,10.8-56.1-9.7-71.8Z"/>
    <path class="st0" d="M709.3,1662.2h0c-6.9-2.8-8.5-16.9-15.2-22.2-6.9-5.6-10.5,5.3-10.5,10.9-.1,6,2,11.7,4.7,16.9,8.9,16.9,16.8,24,34.9,12.6,10.2-6.2,21.3-11.1,33-13.6,7.4-1.7,14.9-2.9,21.7-6.3,12-5.5,17.3-18.5,21.3-30.8,2.5-7.1,4.6-15.1,4.2-22.4-.3-3.6-.6-7.7-3.8-8-5.1,1.1-5.8,9.8-7.9,15.2-1.6,4.9-3.9,10.3-6.8,14.7-6.1,9.8-16.5,13.3-26.9,16.3-14.8,4.7-22.2,6.6-19.3-10.5,2.2-13.1,7.4-25.8,11.2-38.5,1.1-3.5,1.9-6.9,2.1-10.2.3-5.1,0-12.3-5.8-8.9-2.9,2-6,6.6-8.3,9.7-1.5,1.9-2.4,4.1-4.3,5.1-2.6.4-2-6.3-4.5-11.5-1.8-4.2-5.4-9.2-10.6-7.9-12.8,4.3-12.9,21.7-13.3,34.2,0,5.4.5,10.8,1.9,15.9,1.5,5.8,4.1,11.1,6.4,16.1,2.8,6.2,4.6,12.2,2.4,18.3-1.1,2.8-3.3,5.7-6.4,5Z"/>
    <path class="st0" d="M749.2,1707.9c6.9-2.6,14.1-5.9,21.8-7.6,8.5-2,18.5-2.7,26.1-5.9h.2c13.2-5.5,20.2-22.3,26.9-34.3,5.6-12.1,14.7-24.8,12-38.2-.9-7.8-10.2-15.7-17-9-3.1,3.2-5.5,9.9-7.9,17.3-2.8,9-5.5,18.5-8.9,27.2-7.7,20.3-16.9,15.5-35.5,17.2-6.1.7-12.5,2.6-18.1,4.5-8.3,3.2-15.2,4.5-22.8,10.3-8.5,6.9-16.1,19.4-12.9,31,4.9,15.9,25.5,24.6,41.2,22.6,7.9-1,15.5-4.4,22-9,8.7-5.7,17.1-19,1.4-18.5-11.8.6-22.1,9.6-32.9,12.1-8,2.3-18.8-3.2-10.4-11.5,4-3.9,9.7-6.3,14.9-8.3Z"/>
    <path class="st0" d="M1565.8,655.6c-12.6-.2-25.4.6-38,.7-44.7.3-89.5,2.5-134.2,2.3-6.7,0-13.6.2-20.4,0-11.1-.8-21.6-1-32.6-.9-6.6,0-13.7.8-20.6,1.2-16,.3-30,1-46.7,1.2-9.4.2-18.9.2-28.2.1-9.3.4-33-2.3-37.3,5.5-.9,2.4,2,4.9,7.6,6.8,4.3,1.5,10.1,2.5,15.2,2.7,13.7.8,27.6-.1,41.2,0,15.2.2,29.6.8,45.2.4,16.3,0,33.5.4,49.5.4,19.8,0,40.3-1.2,60.2-1.2,26.7,0,53.4.4,80.1-1h.2c11.4-.5,23-.6,34.5-.9,8.2-.3,16.3.3,24.2-1.6,14.4-3.4,19.3-14.4,0-15.8Z"/>
    <path class="st0" d="M2206.4,2074.8c-5.9-3.8-12.7-6.3-19.1-9.2-10.5-4-18-4.8-28-5.9-3.5-.3-7.4-.1-11.7-.3-3.7-.2-7.8-.6-11.6-.6-7.4,0-15.4,0-22.8,0-14.2.3-32.1,1.1-39.4,15.3-4.6,8.1-3.8,16.9,2,21.8h139.1c8.1-5.4.8-15-8.4-21.1Z"/>
    <path class="st0" d="M2107,1556.6c-17.3-2.6-21,0.7-15.9,23.4,5.4,14.7,10.8,30.2,16,44.7,6.7,16.9,13.4,33.9,19.5,51,3.8,10.9,11.4,20.5,23,23.3,5.5,1.5,11.7,1.3,16.1-.3,4.2-1.3,7.7-4.9,5.6-8.3-1-1.8-2.7-3.3-4.4-4.5-5.1-3.7-13.2-6.9-18.8-11.4-13.2-11.1-18.2-29.4-24.3-44.7-3.6-9.7-7.2-19.3-11-28.9-2.4-6.5-4.7-12.3-4.9-17.8-.3-3.1,1.3-6.6,4.9-3.4,6,5.9,8.8,15.6,11.6,23.6,2.8,8.7,6.1,16.8,9.9,25.4,4.1,8.8,7.1,19,11.4,27.8,2.5,4.6,6.8,10.2,11.5,10.9,5.8.7,6.7-6.2,5.7-11.2-2.5-10.8-7.3-21-11.1-31.5-6-15.6-12.3-31.3-20.2-46.3v-.2c-5.2-9.9-13.2-19.4-24.5-21.7Z"/>
    <path class="st0" d="M716.6,2079.3c-5-2.7-11-4.1-16.7-5.1-6.5-1.1-13-2.6-19.9-3.6-9.5-1.4-18.9-3.9-28.5-3.4-11,.2-21.8,4-32.2,7.1-9.2,2.8-19.2,5.3-26.1,12.2h-.1c-2.6,2.7-4.5,6.2-4.7,9.4h139.5c1-5.7-3.5-12.4-11.3-16.7Z"/>
    <path class="st0" d="M2112.2,1670.6c-1.2-8.9-2.7-18-5.5-26.7-3.4-10.7-8.7-21.1-12.5-31.2-5.4-12.9-7.2-27.3-13.3-39.9-2.8-5.4-8-11.1-13.7-11.7-3.5-.4-6.5,1.7-7.7,4.8-1.7,4.4-.7,8.8,1.3,14.4,5.3,13.3,12.6,30.2,18,43.9,4.8,11.3,8.9,21,12.6,32.9,3.5,12.1,6.8,24.2,10.1,36.4,2.8,10.5,4.5,22.4,13.6,28.9,10.7,7.6,24.8,8.9,37.3,11.7,5.6,1.2,11.4,2.7,16.5,4.2,7.6,2.3,17.4,4.3,20.2,1,3-3.4.1-9.1-4.7-13.2-3.2-2.6-7.2-4.3-11.1-5.7h-.2c-9.5-3.5-19.6-3.7-29.4-5.5-26.8-5-27.9-21.1-31.4-44.3Z"/>
    <path class="st0" d="M664.2,1660.2c6.1-7.3,8.3-19.7,12.4-30.8,3.9-11.5,8.3-22.7,12.8-33.8,3.1-9,6.9-17.7,2.8-24.8-6.1-7.6-17.3-2.6-23.3,3-9.7,9-13.5,23.7-18,35.8-4.4,12.2-8.5,23.3-10.7,35.2v.2c-2.3,14.6,12.3,28,24,15.2Z"/>
    <path class="st0" d="M1649.2,1274c-3.2,5.7-2.9,12.5,1.8,16.8h.1c8,6.7,17.4,5.9,28.6,7.4,9.3,1.1,18.7,2.4,27.7,3.2,9.2,6,18.3,1.8,26.5-.8,5.4-1.8,10-5.6,10.7-10,.9-5.1-3-9.9-6.8-13-7.3-6.1-17.1-7.7-26.7-9.1-7.8-.9-15.8-2.5-23.5-3.2-8-.6-15.6-3.6-23.6-1.7-5.8,1.5-11.7,5-14.9,10.3Z"/>
    <path class="st0" d="M1055.7,1308.4c13.1.9,25.5,0,38.8-1,6.4-.5,12.8-1,19.2-1.5,8.6-.9,20.1-1.3,24.2-9.9,3.2-6.3-3.4-12.3-8.9-15-4-2-8.6-3.1-13.3-4.1-7.5-1.6-15.2-2.9-22.9-1.3h-.2c-8.6,1.7-17.1,3.5-26.2,4.7-6.8.9-15.1,1.2-20.9,3.6-6.6,2.6-12.1,8.5-8.9,15.3,3.3,6.5,12,8.6,19,9.2Z"/>
    <path class="st0" d="M713.8,1911.4c-9.1.4-8.1,20.3-8.7,28.3-.3,8.4-1.1,17.3-2.3,24.7v.2c-2.3,14.6-7.7,27.8-6.5,42.7.2,7.7,6.8,24,15.7,17.4,5.4-4.6,6.7-14.8,7.3-22.4.9-12.4,1.4-24.7,3.1-37,1.7-14.7,7.2-28.8,2.5-42.7-1.6-4.9-6-11-11.1-11.1Z"/>
    <path class="st0" d="M1506.5,494.9c.3,3,.6,6,.9,9,.6,5.5,0,10.2,0,14.2-.3,3.6,1.1,9.9,5.1,9.4,5.3-1.4,8.6-10,9.3-15.9,1.3-10,.7-20.5.3-30.5-1.6-21.3-2.9-43.4-7.1-64.7-1.1-5.7-5.9-24-12.7-22.1h0c-7.6,5.1-1.3,31.4-1.3,40.7,1.5,20.4,2.9,40,5.5,59.8Z"/>
    <path class="st0" d="M1250,516.4c1.2,0,2.3.2,3.5.7,5.5,1.3,12.1,18.7,17.5,10.7,3.7-6.9,2.5-16.9,3.3-27.3.6-13.6,1.2-28.5,1.9-41.8.6-12.8,1.5-23.5,2.4-36.7.2-3.4.3-6.8,0-10.1-2.2-20.8-10.6-18.1-14.8.5-4.1,20.6-6.2,42.1-6.8,63,0,15.9-3.2,25.6-11,38.3-.6,1.3-1.9,2.7-2,4h0c.3.5,3-1,6-1.1Z"/>
    <path class="st0" d="M1124.5,1354.8c-6.2-3.2-13.4-3.3-20.3-3.1-10.8.5-22.1,4.1-26,14.6-2.9,7.9-2,18.2,6.4,22.2,9.9,4.9,27.1,2.9,37.8.3,6-1.4,11.6-5.4,13-11.1v-.2c2.9-9-2.9-18.4-11-22.7ZM1103.6,1378.8h0c-.1,0-.2,0-.3,0-.3,0-.7,0-1.1-.1-1.6-.4-3.4-1.7-4.9-3.2-1.5-1.4-2.8-3.2-3.2-4.9-.1-.4-.2-.8-.1-1.1,0-.1,0-.2,0-.3h0c1.2-1.6,4.3.4,6.7,2.9,2.5,2.4,4.4,5.5,3,6.7ZM1123.6,1372.8c-.3.5-.8.8-1.3.9,0,0,0,0,0,0,0,0,0,0-.1,0,0,0-.1,0-.2,0-.2,0-.4,0-.6,0,0,0,0,0-.1,0-.1,0-.3,0-.4,0,0,0,0,0-.1,0-.2,0-.3-.1-.5-.2,0,0,0,0,0,0-1.5-.6-3-1.9-4-3.3,0,0-.1-.1-.2-.2,0-.1-.2-.3-.2-.4-.1-.2-.2-.3-.3-.5-.2-.3-.3-.6-.4-.9-.2-.4-.3-.8-.4-1.2,0-.2,0-.5-.1-.7-.2-1.2,0-2.1.5-2.7.6-.8,1.6-1.1,3-.6.7.3,1.5.7,2.3,1.4l.2.2c.4.3.9.8,1.3,1.4.7.9,1.3,2,1.7,3,.6,1.5.7,2.9,0,3.9Z"/>
    <path class="st0" d="M1971.1,1619.5c-5-3.4-12.8-8.7-18.1-7.3h0c-7.2,3.4-2.3,20.1,1.3,26.4,2,3.5,4.6,6.8,8.1,8.8,10.8,6.8,21.6-5.9,32.3-3.1,8.6,2.7,14,15.2,19.1,22.7,5.5,8.6,10,16.9,16.7,24.1,7.4,7.8,14.7,9.2,11.6-2.9-1.9-7.1-6-14.2-9.4-20.9-2.2-4.5-4.3-9.1-6.7-13.6-10.1-18.5-23.7-40.3-40.8-52.9-4.3-3-10.2-6-14.7-5.5-4.2.5-3.3,5-1.7,7.7,3.2,6,9.7,12.5,13.5,17.3,1,1.4,3.9,4.6,2.5,6.1-3.3,1.1-10-4.8-13.6-7Z"/>
    <path class="st0" d="M1374.4,930.2c9.8,0,19.4-.1,29.2-.3,11.5-.2,27,.6,37.1-3.3,8.7-3.3,6.7-8.5-1.3-11.1-7-2.3-15.2-2.7-22.7-3.2h-.2c-17-1-33.9-1.3-50.9.4-7,.8-14.6,1.7-20.1,5.5-6.5,5,3.3,10,11.1,11,5.9,1,12,1,18,1Z"/>
    <path class="st0" d="M1659.9,1360.2c-3.4,4.7-5.2,10.9-2.5,16.2,4.7,8.9,19.8,10.1,29.2,10.5,11.1,0,27.8-1.9,28.5-15.5v-.2c.5-9.6-6.9-17.7-15.3-21.6-12.7-6.4-31.1-1.1-39.7,10.6ZM1687.3,1366.2c-.1,1.7-1.2,3.2-3.2,3.2h-.2c-1.3,0-2.3-.9-2.8-2-.5-.8-.7-1.8-.5-3v-.2c.6-2.1,2-2.9,3.4-2.7,0,0,0,0,0,0,0,0,0,0,0,0,0,0,.2,0,.3,0,1.1.2,1.9,1,2.4,1.9.4.7.6,1.6.5,2.6Z"/>
    <path class="st0" d="M752.9,1862.3h-.2c-7.3-4.8-15.3-7.7-23.1-11.5-9.8-4.5-19.7-10.7-28.3-16.4-4.1-2.6-8.6-5-12.5-4.6-6.3.5-7,7.5-4,12.1,5,8.4,14.8,12.7,23.3,16.9,11,5.1,22.2,11,33.6,15.5,4.5,1.7,9,2.9,13.7,2.9,6.4,0,8.2-3.7,4.8-8.4-1.9-2.6-4.5-4.6-7.2-6.5Z"/>
    <path class="st0" d="M1174.5,755.7c.4-7.2,2.2-14.4-.6-21.1-2.1-5.4-10.8-11.8-15.2-6-5.5,9-3.1,25-1.8,35.3,1.3,10.7,5.9,20.8,7.1,31.4.5,5.3-.5,14.7,1.9,17.1h0c3.7,3.9,10.1-2,12.2-5.4,4.6-8.3-1.3-21-2.1-30.5-1-6.8-2.4-14-1.7-20.9Z"/>
    <path class="st0" d="M1618.5,731.1c-9.9-1.4-11.8,24.7-13.6,32v.2c-1.5,7.2-3,14.1-4.6,21.2-1.4,6-2.4,12-1.9,16.2,1.5,12.8,11.6,4,15.4-2,8.7-13.1,11.4-30.7,11.7-46.6-.2-6.4-.4-18.2-6.9-21Z"/>
    <path class="st0" d="M2181.1,1753c-9.9-5-19.9-9.1-30.6-12.8-5.3-1.9-10.6-4.1-16.2-5.5-6.5-2-18.6-2.8-21.7,1.2-3,3.8,1.7,7.3,5,9.3,9.2,5.5,20.1,7.5,30.3,10.9,12.6,4,24.7,9.2,36.9,14.3,3.6,1.5,17.1,6.2,15.2-.8-3.8-7.2-11.7-12.8-18.7-16.6h-.2Z"/>
    <path class="st0" d="M783.9,1586.9c-2.7-6.4-11.2-7-16.5-3.2h-.1c-7.9,5.5-11.5,17.9-12.8,27.6-1,7.8-1.4,18.1,6.5,21.1,15.4,3.3,27.8-34.1,22.9-45.5Z"/>
    <path class="st0" d="M2109.3,1928.7h0c-.4,10.1,7.8,18.7,14.7,25.2,6,5.7,15.9,12.7,21.4,11.4,7-1.8,5.1-10.9,3-16.3-3.1-7.6-9.5-14.6-16.1-19.3-6.9-5-21-12.1-23-1Z"/>
    <path class="st0" d="M672.2,1769.5c3.9,4.1,10.4,8,16.8,11.6,5.9,3.2,12,6.7,17.8,9.5,4.4,2.3,23.6,10.2,18.9-.7-3.5-6-9.1-10.2-15.5-15.9-7.2-6.1-15.2-13-23.8-16.3-3.8-1.4-8.1-2.3-12-1.4-7,2.6-7.7,7.6-2.4,12.9h.1Z"/>
    <path class="st0" d="M582.8,1808.1h0c6.1,2.3,16.5-6.7,22.1-11,4.5-4.1,13.9-11.3,13.1-17.1-.8-2.8-4.2-3.4-6.8-3.4-8.4.2-16.7,5.6-23.2,10.9-4.3,3.5-12.1,17.2-5.3,20.6Z"/>
    <path class="st0" d="M2113.5,1760.8c-5.3.5-14.6,4.7-9.5,10.7,8.1,7.1,28.8,4,38.5,1.9h.2c20.4-5.2-8.2-11.5-16.5-12.5-4.2-.5-8.6-.7-12.8,0Z"/>
    <path class="st0" d="M635.5,1709.2c3.9-1.4,7.4-6.6,3.3-9.9h-.1c-3.1-2.7-9.2-3.8-13.1-2-3.4,1.3-6.8,5.7-3.9,9,2.5,2.8,9.3,4.8,13.8,2.9Z"/>
    <path class="st2" d="M1486.6,1868.1c-.7-6.3-1.2-12.4-1.4-18.5-.2-1.9-.3-3.8-.5-5.7,0-3.6.3-7.1.6-10.6.2-5.3.6-10.7,1.2-16.2.2-4.5.3-9.1-.1-13.8,0-.9,0-1.8,0-2.7-.7-8.7-2.7-15.3-7.3-19.8-5.9-5.3-14.9-6.8-24.7-7.2-1.3,0-2.7,0-4.1,0-5.6.2-10.9,0-15.9,0-1.3,0-2.6,0-3.9,0-.9,0-1.7,0-2.5-.1-4.5,0-8.6,0-12.2.4-.3,0-.5,0-.8.1-.1,0-.2,0-.3,0-.5,0-1,.2-1.5.3-2,.4-3.8,1-5.4,1.7-.4.2-.9.4-1.3.7-3.3,1.9-5.8,4.9-7.3,9.6-1.6,5.5-1.6,12.7-1.3,21.7,0,.6.1,1.3.2,1.9,0,1.1,0,2.3,0,3.5,0,0,0,.1,0,.2,0,2.3,0,4.8,0,7.3.3,39.5.7,91.6.9,130.6,0,1.9,0,3.8,0,5.8,0,.1,0,.3,0,.4,0,0,0,0,0,0,.2,2.9.6,5.8,1.6,8.4,0,0,0,0,0,0,0,.2.2.4.3.7,0,.1,0,.2.1.3,0,.1.1.3.2.4,0,.2.2.4.3.6,0,0,0,0,0,.1,1.6,2.8,4.1,4.9,8.1,6,.6.2,1.1.3,1.7.5.3,0,.6.2,1,.3.3,0,.5.1.8.2,8.4,1.9,17.5,2,26.5,2,1.9,0,3.7,0,5.6,0,2.8,0,5.5,0,8.3.2,9.6.5,19.2,0,25.4-4.6,0,0,0,0,0,0,.1,0,.2-.2.4-.3,3.9-3.4,5.6-8.4,6.4-15,0-.3,0-.6,0-.9.2-5.1.4-10.5.5-16,0-.7,0-1.5,0-2.2v-.2c0-5.9.2-11.8.3-17.5,0-2.5,0-5,0-7.4v-.2c.1-1.4.2-2.8.3-4.2.2-6.4.4-12.8.4-19.3,0-7.1-.4-14.2-.9-21.3Z"/>
    <path class="st2" d="M1413.2,1774.3c.5,0,1-.2,1.5-.3-.5,0-1,.2-1.5.3Z"/>
    <path class="st2" d="M1406.5,1776.6c.4-.2.9-.4,1.3-.7-.4.2-.9.4-1.3.7Z"/>
    <path class="st2" d="M1479.4,1972.3c3.8-3,6.2-7.8,6.4-15-.8,6.6-2.5,11.6-6.4,15Z"/>
    <path class="st2" d="M1486.4,1938.2c0,.8,0,1.5,0,2.2.2-6.7.2-13.4.3-20-.2,5.8-.3,11.6-.3,17.5v.2Z"/>
    <path class="st2" d="M1398,1807.9c0,1.7.1,3.5.2,5.4,0-1.2,0-2.3,0-3.5,0-.6-.1-1.3-.2-1.9Z"/>
    <path class="st2" d="M1401.7,1968.2c1.6,2.8,4.2,5,8.3,6,.5.2,1,.3,1.5.4-.6-.2-1.1-.3-1.7-.5-4-1-6.5-3.2-8.1-6Z"/>
    <path class="st2" d="M1399.2,1951.4c-.2-39.1-.7-91.1-.9-130.6.2,38.4.7,92.1.9,130.6,0,1.9,0,3.8,0,5.8,0-1.9,0-3.9,0-5.8Z"/>
    <path class="st2" d="M1485.2,1849.6c.2,6.1.7,12.2,1.4,18.5-.4-6.2-.9-12.4-1.4-18.5Z"/>
    <path class="st2" d="M1487.1,1908.6c.4-6.4.5-12.8.4-19.3,0,6.5-.2,12.9-.4,19.3Z"/>
    <path class="st2" d="M1406.5,1776.6c-3.8,2.1-6,5.3-7.3,9.6,1.5-4.7,4-7.7,7.3-9.6Z"/>
    <path class="st2" d="M1479.2,1780.8c4.6,4.5,6.6,11.2,7.3,19.8,0-9.6-2.8-15.8-7.3-19.8Z"/>
    <path class="st2" d="M1486.5,1817.1c-.6,5.5-1,10.9-1.2,16.2.4-5.4,1-10.8,1.2-16.2Z"/>
    <path class="st2" d="M1428.1,1773.4c-4.8-.2-8.8,0-12.2.4,3.6-.4,7.7-.5,12.2-.4Z"/>
    <path class="st2" d="M1450.4,1773.7c1.4,0,2.8,0,4.1,0-6.5-.2-13.4,0-20,0,4.9.1,10.3.3,15.9,0Z"/>
    <path class="st2" d="M1386.2,1941.4c0-2.3,0-4.6,0-6.9-.3-5.8-.4-11.3,0-15.6,0-.4,0-.7,0-1.1-.1-7.8-.3-15.7-.4-23.5-.3-13.4-.5-26.8-.5-40.2,0-7.8,0-15.6,0-23.4,0-.3,0-.6,0-.9-.5-4.1-.3-9.7,0-15.7,0-4.8,0-9.6,0-14.4.1-1.6.2-3.1.1-4.5-.4-4.7-1.3-8.9-3-12.2-1.9-3.2-4.8-5.3-8.6-6.7-4.6-1.4-10.1-1.7-15-1.7,0,0-.2,0-.2,0-.1,0-.3,0-.4,0,0,0,0,0-.1,0-5.1,0-10.7-.2-16.4-.2-7.4,0-15.1,0-22.4.4-3,.2-6,.4-8.8.7-4.4.7-7.1,2.7-8.7,5.5-2.3,4.3-2.1,10.5-1.9,16.3,0,1.2,0,2.4,0,3.6.3,4.1.6,8.1.2,11.4,0,.3,0,.6,0,.9.2,8,.3,15.9.3,23.9,0,.5,0,1.1,0,1.6,0,7.5,0,15,.1,22.5,0,10.4.1,20.8.2,31.2,0,7.5,0,15,0,22.5,0,0,0,.1,0,.2.2,3.6.1,7.4,0,11.2.2,6.2-.5,13.4-.4,20.5.3,6.6,1.3,13,3.9,18.8.8,1.5,1.9,2.8,3.1,4,2.3,2,4.9,3.4,7.7,4.5,8.3,2.6,18.4,2.7,27.3,2.6,5.3,0,10.4-.1,15,.5.3,0,.6,0,.9,0,5.8.3,11.7.2,16.9-1.4,4-1.5,6.7-4.1,8.4-7.5,1.2-2.6,1.9-5.5,2.4-8.7.7-5.1.5-11.2.2-18Z"/>
    <path class="st2" d="M1315.1,1973.9c8.1,3,17.9,2.7,27.3,2.6-8.9,0-19,0-27.3-2.6Z"/>
    <path class="st2" d="M1300.7,1926.1c-.2,6.8-.7,13.7-.4,20.5,0-7,.6-14.3.4-20.5Z"/>
    <path class="st2" d="M1385.4,1854c0-7.8,0-15.6,0-23.4,0,7.8,0,15.6,0,23.4Z"/>
    <path class="st2" d="M1382.4,1783c1.7,3.3,2.6,7.5,3,12.2,0-5.1-1.1-9.1-3-12.2Z"/>
    <path class="st2" d="M1305.2,1967.3c.7.8,1.4,1.5,2.2,2.1-1.2-1.2-2.2-2.6-3.1-4,.3.6.6,1.3.9,1.9Z"/>
    <path class="st2" d="M1386.2,1934.5c0-5.2,0-10.4,0-15.6-.5,4.4-.3,9.8,0,15.6Z"/>
    <path class="st2" d="M1310.4,1775.4c2.8-.3,5.8-.5,8.8-.7-2.1,0-4.1.2-6.1.3-6.2,0-9.6,2.3-11.5,5.8,1.6-2.8,4.3-4.8,8.7-5.5Z"/>
    <path class="st2" d="M1299.8,1800.8c0,4.1.2,8.2.2,12.3,0-.3,0-.6,0-.9.4-3.3,0-7.3-.2-11.4Z"/>
    <path class="st2" d="M1358.3,1977c7.3.6,12.8.1,16.9-1.4-5.2,1.7-11.1,1.7-16.9,1.4Z"/>
    <path class="st2" d="M1358.1,1774.6c-5.2,0-10.8-.2-16.6-.2,5.7,0,11.3.2,16.4.2,0,0,0,0,.1,0Z"/>
    <path class="st2" d="M1386.1,1901.6v-.2c0-2.4-.1-4.7-.2-7.1.1,7.9.3,15.7.4,23.5,0-5.4,0-10.8-.2-16.2Z"/>
    <path class="st2" d="M1386,1959.4c-.5,3.2-1.2,6.1-2.4,8.7,1.2-2.5,2-5.4,2.4-8.7Z"/>
    <path class="st2" d="M1358.8,1774.6c4.9,0,10.4.3,15,1.7-4-1.4-9-2-15-1.7Z"/>
    <path class="st2" d="M1385.3,1829.8c0-5.2,0-10.5,0-15.7-.3,6-.5,11.6,0,15.7Z"/>
    <path class="st2" d="M1300.7,1892.2c0,7.5,0,15,0,22.5,0-7.5,0-15,0-22.5Z"/>
    <path class="st1" d="M1939.5,2061.3c-1.2-1.4-4.3-1.9-6.2-1.4,0,0-.1,0-.2,0-.9.2-1.8,1-1,1.8.2.4.9.7,1.7,1.2,.1,0,.2,0,.4.1,.1,0,.2,0,.3,0,0,0,0,0,0,0,.6.1,1.3.2,2.3,0,0,0,0,0,0,.2,0,.3,0,.5,0,0,0,.1,0,.2,0,0,0,.2,0,.3,0,.1,0,.3,0,.4,0,0,0,0,0,0,0,.2,0,.3,0,.5,0,0,0,0,0,0,0,.1,0,.3,0,.4-.1,0,0,0,0,0,0,.1,0,.2-.1.3-.2,0,0,0,0,.1-.1,0,0,.1-.1.1-.2.1-.2.1-.5,0-.8h0Z"/>
    <path class="st1" d="M1932.1,2061.8c-.8-.8,0-1.6,1-1.8,0,0,.1,0,.2,0,.9.2,1.8,1.1,1,1.8.2.4.9.7,1.7,1-.8-.2-1.4-.6-1.7-1Z"/>
    <path class="st1" d="M878.4,2041.7c-.2,0-.4.1-.7.3,0,0,0,0,0,0,0,0,0,0,0,0-1,.6-1.9,1.8-2.2,2.9-.1.6-.1,1.2.2,1.8.3.4.7,.7,1.4.8,1.8.2,3.9-2,4.1-3.8,0-1.4-.9-2.4-2.7-2Z"/>
    <path class="st1" d="M880,2041.7h-.2c-.7-.3-1.4-.1-2.1.3.2-.1.4-.2.7-.3,1.8-.4,2.8.6,2.7,2,.1-.9-.2-1.6-1.1-2Z"/>
    <path class="st1" d="M875.5,2045c-.2.7-.1,1.3.2,1.8-.3-.5-.3-1.1-.2-1.8Z"/>
    <path class="st1" d="M807.6,1928.9c1.4-.9,1.4-2.5.7-3.8-.8-1.4-2.6-2.1-4-.6-.7.7-.8,1.8-.4,2.7,0,0,0,0,0,0,0,.1,0,.2.1.3,0,0,0,.2.1.2,0,0,0,0,0,.1.7,1.1,2.1,1.8,3.4,1Z"/>
    <path class="st1" d="M804.2,1924.5c1.4-1.5,3.2-.8,4,.6-.7-1.3-2.1-2.1-3.6-1.1h-.1c-1,.9-1.1,2.1-.7,3.2-.3-.9-.3-2,.4-2.7Z"/>
    <path class="st1" d="M1221.7,2077.7s0,0-.1-.1h0s0,0,0,0c-1.4-1.4-3.1-1.6-4.1-1.1-1,.5-1.4,1.8-.3,3.4v.2c1.2,1.5,3.9,3,5.2,1.2,0,0,0-.2.1-.2.5-1.1,0-2.5-.8-3.4Z"/>
    <path class="st1" d="M1221.7,2077.7s0,0-.1-.1h0s0,0,.1.1Z"/>
    <path class="st1" d="M1217.3,2080.1c1.1,1.5,3.8,3,5.1,1.2-1.3,1.8-4,.3-5.1-1.2Z"/>
    <path class="st1" d="M1217.4,2076.5c-1,.5-1.4,1.8-.3,3.4-1.2-1.7-.8-2.9.3-3.4Z"/>
    <path class="st1" d="M1986.6,1888c-1.6-1.2-2.8-.1-3.3,1.5,0,.1,0,.3-.1.4-.2,1.3,0,2.7.9,3.4,1.6,1.2,2.8,0,3.3-1.6,0-.1,0-.2,0-.4.2-1.3,0-2.7-.9-3.4Z"/>
    <path class="st1" d="M1983.3,1889.9c0-.1,0-.3.1-.4,0,.1,0,.3-.1.4Z"/>
    <path class="st1" d="M1984.2,1893.3c-.9-.7-1.1-2.2-.9-3.4-.3,1.4,0,3,1.1,3.7h.1c1.5.8,2.6-.3,3-1.8-.5,1.6-1.7,2.8-3.3,1.6Z"/>
    <path class="st1" d="M1987.5,1891.4c0,.1,0,.2,0,.4,0-.1,0-.2,0-.4Z"/>
    <path class="st1" d="M876.4,1929c1.5.8,3.3,0,4.2-1.4.8-1.4.6-3.1-1.6-3.5-.5-.1-1,0-1.5.1,0,0-.2,0-.3.1,0,0,0,0-.1,0-.4.2-.8.6-1.1.9,0,0,0,.1-.1.2,0,0,0,0,0,0-.3.4-.5.8-.5,1.3-.1.8.2,1.6,1.1,2.1Z"/>
    <path class="st1" d="M877.1,1924.4c-.4.2-.8.5-1.1.9.3-.4.7-.7,1.1-.9Z"/>
    <path class="st1" d="M876.6,1929.2h.2c1.5.6,3-.3,3.8-1.5-.9,1.3-2.7,2.2-4.2,1.4-.9-.6-1.2-1.3-1.1-2.1-.2.9.2,1.8,1.4,2.3Z"/>
    <path class="st1" d="M1959.5,2026.9c1.6-.9,1.3-2.9.3-4.1,0,0,0-.1-.1-.2,0,0,0,0,0,0-.9-.9-2.2-1.3-3.3-.5-1.3.9-1.1,2.5-.4,3.7.8,1.2,2.2,1.9,3.5,1.2Z"/>
    <path class="st1" d="M1959.5,2026.9c-1.3.7-2.7,0-3.5-1.2.8,1.2,2.3,2,3.6,1.2h.1c1.4-1.1,1.1-2.9,0-4.1,1,1.3,1.3,3.2-.3,4.1Z"/>
    <path class="st1" d="M1868.8,1963.1c-1.3-.4-2.5.2-2.7,1.2-.2,1.7,2.2,3.4,3.8,3.3.3,0,.5-.1.7-.2,0,0,.1,0,.2,0,0,0,0,0,0,0,.4-.3.7-.6.8-1.1,0-1.1-1.3-2.5-2.7-3Z"/>
    <path class="st1" d="M1868.8,1963.1c-.8-.3-1.6-.3-2.2.2h-.1c-.2.4-.3.7-.4.9.2-1,1.4-1.5,2.7-1.2Z"/>
    <path class="st1" d="M1870.8,1967.2c.5-.3.8-.6.8-1.1,0,.4-.4.8-.8,1.1Z"/>
    <path class="st1" d="M1875.3,1911.8c-.5.1-1.1.4-1.5.7-.3.2-.5.6-.6.9,0,.1,0,.2,0,.3.1.5.5.9,1,1.2,0,0,.2,0,.3.1,0,0,0,0,0,0,.3.1.6.2.9.2,0,0,0,0,.1,0,0,0,.1,0,.2,0,1.5.1,3.3-.4,3.7-1.3,0-.1.1-.2.1-.3,0-1.2-2.2-2.4-4.2-1.9Z"/>
    <path class="st1" d="M1873.2,1913.6c0,0,0,.1,0,.2,0-.1,0-.2,0-.3,0,0,0,.1,0,.2Z"/>
    <path class="st1" d="M1878.9,1912.4c-1.2-1-3.8-1.1-5.1,0,.4-.3,1-.6,1.5-.7,2-.5,4.3.6,4.2,1.9,0-.4-.1-.8-.5-1.2h-.1Z"/>
    <path d="M1376.7,831.7c.3.7,1.1,1.3,2.5,1.9,1.5.4,3.3.8,5.4,1.1.7,0,1.3.1,1.8.2,0,0,.2,0,.3,0,2.8.2,7.3.4,12.1.3,6.3-.2,12.5-1.1,16.3-2.6.7-.3,1.3-.5,1.8-.8,1-.6,1.8-1.2,2.3-2,1.2-1.9.4-4-1.3-5.9-1.1-1.1-2.4-2-3.7-2.7-3-1.6-6.3-2.5-9.7-2.8,0,0-.1,0-.2,0-.4,0-.8,0-1.2,0-1.4,0-2.9,0-4.3.2-.1,0-.2,0-.3,0-2.5.3-4.9.9-7.2,1.6-.5.2-.9.3-1.4.5-3,1.1-5.9,2.6-8.2,4.2-.2.1-.4.3-.6.4,0,0,0,0,0,0-.7.5-1.5,1.1-2.1,1.7-.2.1-.3.3-.5.4,0,0-.1,0-.2.1-.5.5-.9,1-1.2,1.5-.7,1.1-.7,1.9-.5,2.6Z"/>
    <path d="M1389.9,820.8c.5-.2.9-.3,1.4-.5-.5.2-.9.3-1.4.5Z"/>
    <path d="M1398.3,818.7c-2.2.2-4.6.8-7,1.6,2.3-.8,4.7-1.3,7.2-1.6,0,0-.1,0-.2,0Z"/>
    <path d="M1376.7,831.7c.8,2,5,2.6,8,2.9-2.1-.3-4-.6-5.4-1.1-1.4-.5-2.2-1.1-2.5-1.9Z"/>
    <path d="M1379,827c.6-.6,1.4-1.1,2.1-1.7-.8.6-1.5,1.1-2.1,1.7Z"/>
    <path d="M1419.2,829.8c.2-.2.3-.4.4-.7h0c.6-2-.3-3.7-1.8-5.2,1.8,1.9,2.5,4,1.3,5.9Z"/>
    <path d="M1386.6,834.9s0,0,.1,0c0,0-.2,0-.3,0,0,0,0,0,.1,0Z"/>
    <path d="M1398.7,818.6c1.4-.2,2.9-.2,4.3-.2-1.4,0-2.9,0-4.3.2Z"/>
    <path d="M1398.8,835.2c6.7-.1,14-.9,18.1-3.4-.5.3-1.1.6-1.8.8-3.8,1.5-10,2.3-16.3,2.6Z"/>
    <path d="M1123.7,1368.9c-.4-1.1-1-2.2-1.7-3-.4-.5-.9-1-1.3-1.4l-.2-.2c-.8-.7-1.6-1.1-2.3-1.4-1.3-.5-2.4-.2-3,.6-.5.7-.6,1.6-.5,2.7,0,.2,0,.4.1.7,0,.2.1.4.2.7,0,.2,0,.3.2.5.1.3.3.6.4.9,0,.2.2.3.3.5.1.2.2.4.4.6,1.1,1.4,2.6,2.7,4,3.3,0,0,0,0,0,0,.2,0,.3.1.5.2,0,0,0,0,.1,0,.1,0,.3,0,.4,0,0,0,0,0,.1,0,.2,0,.4,0,.6,0,0,0,.2,0,.2,0,0,0,.1,0,.2,0,.6-.2,1-.5,1.3-.9.2-.3.3-.7.4-1.2,0-.9,0-1.8-.4-2.7Z"/>
    <path d="M1116.1,1369.9c0,0,.1.1.2.2-.1-.2-.3-.4-.4-.6,0,.1.1.3.2.4Z"/>
    <path d="M1115.5,1369c-.2-.3-.3-.6-.4-.9.1.3.3.6.4.9Z"/>
    <path d="M1122,1365.9c.7.9,1.3,2,1.7,3-.4-1.1-1-2.1-1.7-3Z"/>
    <path d="M116.3,1370.1c1,1.4,2.5,2.7,4,3.3-1.4-.6-2.9-1.9-4-3.3Z"/>
    <path d="M1118.2,1362.9c-1.4-.6-2.5-.2-3,.6.6-.8,1.7-1,3-.6Z"/>
    <path d="M1114.8,1366.9c0,.4.2.8.4.2,0-.2-.1-.3-.2-.5,0-.2-.1-.5-.2-.7Z"/>
    <path d="M1114.8,1366.9c0-.2-.1-.5-.1-.7,0,.2,0,.4.1.7Z"/>
    <path d="M1122.4,1373.7c.5-.1.9-.4,1.3-.9-.3.4-.7.7-1.3.9Z"/>
    <path d="M1122.2,1373.7c0,0-.1,0-.2,0,0,0,.2,0,.2,0Z"/>
    <path d="M1122.3,1373.7s0,0,0,0c0,0-.1,0-.2,0,0,0,0,0,.1,0Z"/>
    <path d="M1122,1373.7c-.2,0-.4,0-.6,0,.2,0,.4,0,.6,0Z"/>
    <path d="M1104.1,1378c.2-1.2-1.4-3.7-3.4-5.8-2.1-2-4.6-3.7-5.8-3.4-.6.1-.9.4-.9.9,0,.4,0,.7.1,1.1.2.5.4,1.1.7,1.5.6,1,1.5,2.2,2.6,3.3,1.1,1.1,2.3,2,3.3,2.6.4.2,1,.5,1.5.7.4,0,.7.1,1.1.1.4,0,.7-.3.9-.9Z"/>
    <path d="M1103.2,1378.9c-.4,0-.7,0-1.1-.1.4.1.8.2,1.1.1Z"/>
    <path d="M1094.8,1368.7c1.2-.2,3.7,1.4,5.8,3.4-2.4-2.5-5.5-4.4-6.7-3h0c0,.2,0,.3,0,.4,0-.4.3-.7.9-.9Z"/>
    <path d="M1094.1,1370.7c.4,1.6,1.7,3.4,3.2,4.9-1.1-1.1-2-2.3-2.6-3.3-.2-.4-.5-1-.7-1.5Z"/>
    <path d="M1686.8,1363.5c-.5-1-1.4-1.7-2.4-1.9,0,0-.2,0-.3,0,0,0,0,0-.1,0-3.1,0-4,3.6-2.9,5.9,1.4,2.3,5,2.9,6.1-.7,0-.2,0-.4.1-.6,0-.9,0-1.8-.5-2.6Z"/>
    <path d="M1684,1361.6c-1.4-.2-2.7.6-3.3,2.7v.2c-.3,1.1,0,2.2.4,3-1.2-2.3-.2-5.9,2.9-5.9Z"/>
    <path d="M1687.3,1366.2c.1-1,0-1.9-.5-2.6.4.8.6,1.7.5,2.6Z"/>
  </g>
  <g>
    <path class="st0" d="M583.8,2206.8v67.9h-89.6v333.9h-76.8v-333.9h-89.6v-67.9h256Z"/>
    <path class="st0" d="M581.6,2608.5l99.6-401.8h98.5l96.8,401.8h-73.5l-19.5-84.6h-106.3l-21.7,84.6h-74ZM691.2,2456.1h76.2l-37.3-162.5h-1.1l-37.8,162.5Z"/>
    <path class="st0" d="M918.3,2608.5v-401.8h76.8v333.9h123.5v67.9h-200.3Z"/>
    <path class="st0" d="M1165.3,2608.5v-401.8h76.8v333.9h123.5v67.9h-200.3Z"/>
    <path class="st0" d="M1759.1,2575.2c-20.6,23.4-42.8,39-71.8,39-74.6,0-126.9-35.6-126.9-134.7v-143.6c0-99.1,52.3-134.7,126.9-134.7s120.8,45.1,123.5,136.3h-76.8c0-51.8-18.9-68.4-46.7-68.4s-50.1,12.2-50.1,56.8v163.6c0,44.5,19.5,56.8,50.1,56.8s46.7-21.1,46.7-55.6v-24.5h-54v-63.4h130.8v205.9h-40.1l-11.7-33.4Z"/>
    <path class="st0" d="M1957.8,2206.8v281c0,38.4,16.7,58.4,54,58.4s54.5-20,54.5-58.4v-281h76.8v281.6c0,88.5-52.3,125.8-131.3,125.8s-130.8-37.3-130.8-125.8v-281.6h76.8Z"/>
    <path class="st0" d="M2337.8,2368.7l65.1-161.9h81.8l-109.6,239.3v162.5h-76.8v-162.5l-109.6-239.3h81.8l67.3,161.9Z"/>
  </g>
  <g>
    <path class="st0" d="M827.3,2896.2v-205.9h116.7c40.7,0,60.2,26.5,60.2,52.5s-15.7,42.9-35.2,47.2c21.9,3.4,39.2,24.4,39.2,50.3s-20.1,55.9-60.5,55.9h-120.4ZM880.4,2770h51.5c10.8,0,18.2-7.7,18.2-17.9s-7.4-17.6-18.2-17.6h-51.5v35.5ZM880.4,2852.1h53.4c12.7,0,20.4-7.7,20.4-18.8s-7.4-19.4-20.4-19.4h-53.4v38.3Z"/>
    <path class="st0" d="M1068,2690.4h54v120.7c0,24.4,13,42,41.7,42s41.4-17.6,41.4-42v-120.7h54v122.2c0,51.2-29.3,87.3-95.4,87.3s-95.7-36.4-95.7-87v-122.5Z"/>
    <path class="st0" d="M1327,2896.2v-205.9h53.1v205.9h-53.1Z"/>
    <path class="st0" d="M1447.9,2896.2v-205.9h53.1v159.6h82.7v46.3h-135.8Z"/>
    <path class="st0" d="M1642.1,2896.2v-205.9h86.4c64.8,0,111.4,38.9,111.4,102.8s-46.6,103.1-111.1,103.1h-86.7ZM1695.2,2849.9h33.3c36.1,0,57.1-26.2,57.1-56.8s-19.1-56.5-56.8-56.5h-33.6v113.3Z"/>
    <path class="st0" d="M1910.6,2827.4c14.8,14.8,37.7,27.2,65.7,27.2s29.3-7.7,29.3-17.6-13.3-16.4-35.2-21c-34-6.8-81.5-15.4-81.5-64.2s29.3-64.5,82.1-64.5,61.7,9.9,83.6,28.7l-29,38c-17.3-14.2-39.8-21.3-58-21.3s-24.4,7.1-24.4,16,12.7,14.5,35.5,18.8c34,7.1,80.9,17,80.9,63.6s-30.6,68.8-85.8,68.8-70.7-13-91.4-32.7l28.1-39.8Z"/>
  </g>
  <g>
    <path class="st0" d="M1315.5,3041.3v-86.7h13v86.7h-13Z"/>
    <path class="st0" d="M1421.8,3041.3l-48-66.6v66.6h-13v-86.7h13.4l47.2,65v-65h13v86.7h-12.6Z"/>
    <path class="st0" d="M1463,2998c0-26.7,19.8-44.9,44.5-44.9s27.7,8.2,34.5,18.3l-11.1,5.8c-4.5-7.3-13.1-12.6-23.4-12.6-17.5,0-31.1,13.8-31.1,33.3s13.5,33.3,31.1,33.3,18.9-5.3,23.4-12.6l11.1,5.9c-6.9,10.1-17.4,18.3-34.5,18.3-24.7,0-44.5-18.2-44.5-44.9Z"/>
    <path class="st0" d="M1573.6,3026.5c4.4,0,8.2,3.6,8.2,8.1s-3.8,8.2-8.2,8.2-8.1-3.8-8.1-8.2,3.6-8.1,8.1-8.1Z"/>
  </g>
  <rect class="st1" x="861.4" y="2045.8" width="1078.2" height="49.8"/>
</svg>
